%TF.GenerationSoftware,KiCad,Pcbnew,8.0.8*%
%TF.CreationDate,2025-02-25T11:28:35+01:00*%
%TF.ProjectId,ADC_16bit_board_v0r0,4144435f-3136-4626-9974-5f626f617264,rev?*%
%TF.SameCoordinates,Original*%
%TF.FileFunction,Copper,L2,Inr*%
%TF.FilePolarity,Positive*%
%FSLAX46Y46*%
G04 Gerber Fmt 4.6, Leading zero omitted, Abs format (unit mm)*
G04 Created by KiCad (PCBNEW 8.0.8) date 2025-02-25 11:28:35*
%MOMM*%
%LPD*%
G01*
G04 APERTURE LIST*
%TA.AperFunction,ComponentPad*%
%ADD10R,1.700000X1.700000*%
%TD*%
%TA.AperFunction,ComponentPad*%
%ADD11O,1.700000X1.700000*%
%TD*%
%TA.AperFunction,ComponentPad*%
%ADD12R,2.400000X2.400000*%
%TD*%
%TA.AperFunction,ComponentPad*%
%ADD13C,2.400000*%
%TD*%
%TA.AperFunction,ComponentPad*%
%ADD14R,1.500000X1.500000*%
%TD*%
%TA.AperFunction,ComponentPad*%
%ADD15C,1.500000*%
%TD*%
%TA.AperFunction,ComponentPad*%
%ADD16R,1.508000X1.508000*%
%TD*%
%TA.AperFunction,ComponentPad*%
%ADD17C,1.508000*%
%TD*%
%TA.AperFunction,ViaPad*%
%ADD18C,0.800000*%
%TD*%
G04 APERTURE END LIST*
D10*
%TO.N,GAIN*%
%TO.C,J4*%
X194960000Y-100880000D03*
D11*
%TO.N,VDD*%
X197500000Y-100880000D03*
%TO.N,GAIN*%
X194960000Y-103420000D03*
%TO.N,Net-(J4-Pin_4)*%
X197500000Y-103420000D03*
%TO.N,GAIN*%
X194960000Y-105960000D03*
%TO.N,Net-(J4-Pin_6)*%
X197500000Y-105960000D03*
%TO.N,GAIN*%
X194960000Y-108500000D03*
%TO.N,GND*%
X197500000Y-108500000D03*
%TD*%
D12*
%TO.N,Net-(J1-Pin_1)*%
%TO.C,J1*%
X226850000Y-110150000D03*
D13*
%TO.N,Net-(J1-Pin_2)*%
X230350000Y-110150000D03*
%TD*%
D14*
%TO.N,VBUS*%
%TO.C,U2*%
X215250000Y-80325000D03*
D15*
%TO.N,GND*%
X215250000Y-82865000D03*
%TO.N,-5VA*%
X215250000Y-87945000D03*
%TO.N,GNDA*%
X215250000Y-90485000D03*
%TO.N,+5VA*%
X215250000Y-93025000D03*
%TD*%
D16*
%TO.N,Net-(U3-+)*%
%TO.C,RV1*%
X231000000Y-100250000D03*
D17*
%TO.N,Net-(C10-Pad2)*%
X228500000Y-102750000D03*
%TO.N,unconnected-(RV1-Pad3)*%
X226000000Y-100250000D03*
%TD*%
D16*
%TO.N,Net-(RV2-Pad1)*%
%TO.C,RV2*%
X223000000Y-100270000D03*
D17*
%TO.N,Net-(RV2-Pad2)*%
X220500000Y-102770000D03*
%TO.N,unconnected-(RV2-Pad3)*%
X218000000Y-100270000D03*
%TD*%
D12*
%TO.N,Net-(J2-Pin_1)*%
%TO.C,J2*%
X204500000Y-110109000D03*
D13*
%TO.N,Net-(J2-Pin_2)*%
X208000000Y-110109000D03*
%TD*%
D10*
%TO.N,+3V3*%
%TO.C,J3*%
X200650000Y-65940000D03*
D11*
%TO.N,VBUS*%
X200650000Y-63400000D03*
%TO.N,/GPIO2{slash}SDA1*%
X203190000Y-65940000D03*
%TO.N,VBUS*%
X203190000Y-63400000D03*
%TO.N,/GPIO3{slash}SCL1*%
X205730000Y-65940000D03*
%TO.N,GND*%
X205730000Y-63400000D03*
%TO.N,/GPIO4{slash}GPCLK0*%
X208270000Y-65940000D03*
%TO.N,/GPIO14{slash}TXD0*%
X208270000Y-63400000D03*
%TO.N,GND*%
X210810000Y-65940000D03*
%TO.N,/GPIO15{slash}RXD0*%
X210810000Y-63400000D03*
%TO.N,/GPIO17*%
X213350000Y-65940000D03*
%TO.N,I2S_BCLK*%
X213350000Y-63400000D03*
%TO.N,/GPIO27*%
X215890000Y-65940000D03*
%TO.N,GND*%
X215890000Y-63400000D03*
%TO.N,/GPIO22*%
X218430000Y-65940000D03*
%TO.N,/GPIO23*%
X218430000Y-63400000D03*
%TO.N,+3V3*%
X220970000Y-65940000D03*
%TO.N,/GPIO24*%
X220970000Y-63400000D03*
%TO.N,SPI_MOSI*%
X223510000Y-65940000D03*
%TO.N,GND*%
X223510000Y-63400000D03*
%TO.N,SPI_MISO*%
X226050000Y-65940000D03*
%TO.N,/GPIO25*%
X226050000Y-63400000D03*
%TO.N,SPI_CLK*%
X228590000Y-65940000D03*
%TO.N,SPI_CS*%
X228590000Y-63400000D03*
%TO.N,GND*%
X231130000Y-65940000D03*
%TO.N,/GPIO7{slash}SPI0.CE1*%
X231130000Y-63400000D03*
%TO.N,/ID_SDA*%
X233670000Y-65940000D03*
%TO.N,/ID_SCL*%
X233670000Y-63400000D03*
%TO.N,/GPIO5*%
X236210000Y-65940000D03*
%TO.N,GND*%
X236210000Y-63400000D03*
%TO.N,/GPIO6*%
X238750000Y-65940000D03*
%TO.N,/GPIO12{slash}PWM0*%
X238750000Y-63400000D03*
%TO.N,/GPIO13{slash}PWM1*%
X241290000Y-65940000D03*
%TO.N,GND*%
X241290000Y-63400000D03*
%TO.N,I2S_LRCLK*%
X243830000Y-65940000D03*
%TO.N,/GPIO16*%
X243830000Y-63400000D03*
%TO.N,/GPIO26*%
X246370000Y-65940000D03*
%TO.N,/GPIO20{slash}PCM.DIN*%
X246370000Y-63400000D03*
%TO.N,GND*%
X248910000Y-65940000D03*
%TO.N,I2S_DOUT*%
X248910000Y-63400000D03*
%TD*%
D18*
%TO.N,SPI_MOSI*%
X226750000Y-73250000D03*
X230000000Y-84000000D03*
%TO.N,+5VA*%
X224367083Y-77603493D03*
X235200000Y-108600000D03*
%TO.N,VDD*%
X203600000Y-101800000D03*
X229950000Y-75200000D03*
X235750000Y-81750000D03*
X194600000Y-115400000D03*
X204088590Y-100050000D03*
X204600000Y-97000000D03*
X206800000Y-87200000D03*
%TO.N,VBUS*%
X205800000Y-80800000D03*
%TO.N,-5VA*%
X222600000Y-107800000D03*
X235000000Y-94600000D03*
%TO.N,I2S_LRCLK*%
X212950000Y-101800000D03*
%TO.N,GND*%
X232500000Y-78000000D03*
X232500000Y-75000000D03*
X232500000Y-76500000D03*
X234000000Y-76500000D03*
%TO.N,I2S_DOUT*%
X208950000Y-99550000D03*
%TO.N,I2S_BCLK*%
X211800000Y-100800000D03*
%TO.N,GAIN*%
X207150000Y-99000000D03*
%TO.N,Net-(J4-Pin_6)*%
X198600000Y-112800000D03*
%TD*%
%TA.AperFunction,Conductor*%
%TO.N,GNDA*%
G36*
X217563700Y-72000827D02*
G01*
X225137819Y-72099192D01*
X225182122Y-72118222D01*
X225200000Y-72162187D01*
X225200000Y-81000000D01*
X236937000Y-81000000D01*
X236981548Y-81018452D01*
X237000000Y-81063000D01*
X237000000Y-97162382D01*
X236981548Y-97206930D01*
X236961109Y-97220586D01*
X236827470Y-97275941D01*
X236827462Y-97275945D01*
X236664072Y-97385119D01*
X236525119Y-97524072D01*
X236415945Y-97687462D01*
X236415941Y-97687470D01*
X236340744Y-97869010D01*
X236340742Y-97869014D01*
X236302406Y-98061744D01*
X236302406Y-98061745D01*
X236300000Y-98159995D01*
X236300000Y-113160004D01*
X236302406Y-113258254D01*
X236302406Y-113258255D01*
X236340742Y-113450985D01*
X236340744Y-113450989D01*
X236415941Y-113632529D01*
X236415945Y-113632537D01*
X236525119Y-113795928D01*
X236664072Y-113934881D01*
X236827463Y-114044055D01*
X236961112Y-114099414D01*
X236995204Y-114133506D01*
X237000000Y-114157616D01*
X237000000Y-117097000D01*
X236981548Y-117141548D01*
X236937000Y-117160000D01*
X213563000Y-117160000D01*
X213518452Y-117141548D01*
X213500000Y-117097000D01*
X213500000Y-108930252D01*
X225449500Y-108930252D01*
X225449500Y-111369748D01*
X225461133Y-111428231D01*
X225505448Y-111494552D01*
X225571769Y-111538867D01*
X225630252Y-111550500D01*
X225630255Y-111550500D01*
X228069745Y-111550500D01*
X228069748Y-111550500D01*
X228128231Y-111538867D01*
X228194552Y-111494552D01*
X228238867Y-111428231D01*
X228250500Y-111369748D01*
X228250500Y-110150000D01*
X228944700Y-110150000D01*
X228963865Y-110381299D01*
X228963867Y-110381311D01*
X229020840Y-110606293D01*
X229020842Y-110606299D01*
X229020843Y-110606300D01*
X229114076Y-110818849D01*
X229241021Y-111013153D01*
X229398216Y-111183913D01*
X229581374Y-111326470D01*
X229785497Y-111436936D01*
X229785506Y-111436939D01*
X230005012Y-111512296D01*
X230005013Y-111512297D01*
X230233950Y-111550500D01*
X230233951Y-111550500D01*
X230466050Y-111550500D01*
X230580939Y-111531328D01*
X230694981Y-111512298D01*
X230694981Y-111512297D01*
X230694986Y-111512297D01*
X230694987Y-111512296D01*
X230746679Y-111494550D01*
X230914503Y-111436936D01*
X231118626Y-111326470D01*
X231301784Y-111183913D01*
X231458979Y-111013153D01*
X231585924Y-110818849D01*
X231679157Y-110606300D01*
X231736134Y-110381305D01*
X231755300Y-110150000D01*
X231736134Y-109918695D01*
X231679157Y-109693700D01*
X231585924Y-109481151D01*
X231458979Y-109286847D01*
X231301784Y-109116087D01*
X231118626Y-108973530D01*
X231118624Y-108973529D01*
X231118623Y-108973528D01*
X230914505Y-108863065D01*
X230914493Y-108863060D01*
X230694987Y-108787703D01*
X230694986Y-108787702D01*
X230466050Y-108749500D01*
X230466049Y-108749500D01*
X230233951Y-108749500D01*
X230233950Y-108749500D01*
X230005013Y-108787702D01*
X230005012Y-108787703D01*
X229785506Y-108863060D01*
X229785494Y-108863065D01*
X229581376Y-108973528D01*
X229581372Y-108973531D01*
X229398217Y-109116086D01*
X229241019Y-109286849D01*
X229114079Y-109481145D01*
X229114077Y-109481148D01*
X229020840Y-109693706D01*
X228963867Y-109918688D01*
X228963865Y-109918700D01*
X228944700Y-110150000D01*
X228250500Y-110150000D01*
X228250500Y-108930252D01*
X228238867Y-108871769D01*
X228194552Y-108805448D01*
X228128231Y-108761133D01*
X228069748Y-108749500D01*
X225630252Y-108749500D01*
X225586389Y-108758224D01*
X225571768Y-108761133D01*
X225505449Y-108805447D01*
X225505447Y-108805449D01*
X225461133Y-108871768D01*
X225461133Y-108871769D01*
X225449500Y-108930252D01*
X213500000Y-108930252D01*
X213500000Y-108599999D01*
X234594318Y-108599999D01*
X234594318Y-108600000D01*
X234614956Y-108756763D01*
X234614956Y-108756766D01*
X234675463Y-108902839D01*
X234675464Y-108902841D01*
X234771714Y-109028278D01*
X234771721Y-109028285D01*
X234865699Y-109100396D01*
X234897159Y-109124536D01*
X234988011Y-109162168D01*
X235043235Y-109185043D01*
X235043238Y-109185044D01*
X235200000Y-109205682D01*
X235356762Y-109185044D01*
X235356764Y-109185043D01*
X235356766Y-109185043D01*
X235421365Y-109158284D01*
X235502841Y-109124536D01*
X235628282Y-109028282D01*
X235724536Y-108902841D01*
X235764878Y-108805447D01*
X235785043Y-108756766D01*
X235785043Y-108756764D01*
X235785044Y-108756762D01*
X235805682Y-108600000D01*
X235785044Y-108443238D01*
X235785043Y-108443235D01*
X235785043Y-108443233D01*
X235735876Y-108324536D01*
X235724536Y-108297159D01*
X235700472Y-108265798D01*
X235628285Y-108171721D01*
X235628278Y-108171714D01*
X235502841Y-108075464D01*
X235502839Y-108075463D01*
X235356764Y-108014956D01*
X235200000Y-107994318D01*
X235043236Y-108014956D01*
X235043233Y-108014956D01*
X234897160Y-108075463D01*
X234897158Y-108075464D01*
X234771721Y-108171714D01*
X234771714Y-108171721D01*
X234675464Y-108297158D01*
X234675463Y-108297160D01*
X234614956Y-108443233D01*
X234614956Y-108443236D01*
X234594318Y-108599999D01*
X213500000Y-108599999D01*
X213500000Y-107799999D01*
X221994318Y-107799999D01*
X221994318Y-107800000D01*
X222014956Y-107956763D01*
X222014956Y-107956766D01*
X222075463Y-108102839D01*
X222075464Y-108102841D01*
X222171714Y-108228278D01*
X222171721Y-108228285D01*
X222261482Y-108297160D01*
X222297159Y-108324536D01*
X222320862Y-108334354D01*
X222443235Y-108385043D01*
X222443238Y-108385044D01*
X222600000Y-108405682D01*
X222756762Y-108385044D01*
X222756764Y-108385043D01*
X222756766Y-108385043D01*
X222821365Y-108358284D01*
X222902841Y-108324536D01*
X223028282Y-108228282D01*
X223124536Y-108102841D01*
X223169488Y-107994318D01*
X223185043Y-107956766D01*
X223185043Y-107956764D01*
X223185044Y-107956762D01*
X223205682Y-107800000D01*
X223204892Y-107794003D01*
X223194563Y-107715543D01*
X223185044Y-107643238D01*
X223185043Y-107643235D01*
X223185043Y-107643233D01*
X223124536Y-107497160D01*
X223124535Y-107497158D01*
X223028285Y-107371721D01*
X223028278Y-107371714D01*
X222902841Y-107275464D01*
X222902839Y-107275463D01*
X222756764Y-107214956D01*
X222600000Y-107194318D01*
X222443236Y-107214956D01*
X222443233Y-107214956D01*
X222297160Y-107275463D01*
X222297158Y-107275464D01*
X222171721Y-107371714D01*
X222171714Y-107371721D01*
X222075464Y-107497158D01*
X222075463Y-107497160D01*
X222014956Y-107643233D01*
X222014956Y-107643236D01*
X221994318Y-107799999D01*
X213500000Y-107799999D01*
X213500000Y-102770000D01*
X219540882Y-102770000D01*
X219559311Y-102957117D01*
X219559313Y-102957123D01*
X219613889Y-103137036D01*
X219613890Y-103137039D01*
X219702520Y-103302853D01*
X219702522Y-103302856D01*
X219702523Y-103302857D01*
X219821801Y-103448199D01*
X219967143Y-103567477D01*
X219967144Y-103567477D01*
X219967146Y-103567479D01*
X220132960Y-103656109D01*
X220132963Y-103656110D01*
X220239665Y-103688477D01*
X220312885Y-103710689D01*
X220500000Y-103729118D01*
X220687115Y-103710689D01*
X220867039Y-103656109D01*
X221032857Y-103567477D01*
X221178199Y-103448199D01*
X221297477Y-103302857D01*
X221386109Y-103137039D01*
X221440689Y-102957115D01*
X221459118Y-102770000D01*
X221457148Y-102750000D01*
X227540882Y-102750000D01*
X227559311Y-102937117D01*
X227559313Y-102937123D01*
X227613889Y-103117036D01*
X227613890Y-103117039D01*
X227702520Y-103282853D01*
X227702522Y-103282856D01*
X227702523Y-103282857D01*
X227821801Y-103428199D01*
X227967143Y-103547477D01*
X227967144Y-103547477D01*
X227967146Y-103547479D01*
X228132960Y-103636109D01*
X228132963Y-103636110D01*
X228239665Y-103668477D01*
X228312885Y-103690689D01*
X228500000Y-103709118D01*
X228687115Y-103690689D01*
X228867039Y-103636109D01*
X229032857Y-103547477D01*
X229178199Y-103428199D01*
X229297477Y-103282857D01*
X229386109Y-103117039D01*
X229440689Y-102937115D01*
X229459118Y-102750000D01*
X229440689Y-102562885D01*
X229418477Y-102489665D01*
X229386110Y-102382963D01*
X229386109Y-102382960D01*
X229297479Y-102217146D01*
X229297477Y-102217143D01*
X229178199Y-102071801D01*
X229032857Y-101952523D01*
X229032856Y-101952522D01*
X229032853Y-101952520D01*
X228867039Y-101863890D01*
X228867036Y-101863889D01*
X228687123Y-101809313D01*
X228687117Y-101809311D01*
X228500000Y-101790882D01*
X228312882Y-101809311D01*
X228312876Y-101809313D01*
X228132963Y-101863889D01*
X228132960Y-101863890D01*
X227967146Y-101952520D01*
X227821801Y-102071801D01*
X227702520Y-102217146D01*
X227613890Y-102382960D01*
X227613889Y-102382963D01*
X227559313Y-102562876D01*
X227559311Y-102562882D01*
X227540882Y-102750000D01*
X221457148Y-102750000D01*
X221440689Y-102582885D01*
X221418477Y-102509665D01*
X221386110Y-102402963D01*
X221386109Y-102402960D01*
X221297479Y-102237146D01*
X221281066Y-102217146D01*
X221178199Y-102091801D01*
X221032857Y-101972523D01*
X221032856Y-101972522D01*
X221032853Y-101972520D01*
X220867039Y-101883890D01*
X220867036Y-101883889D01*
X220687123Y-101829313D01*
X220687117Y-101829311D01*
X220500000Y-101810882D01*
X220312882Y-101829311D01*
X220312876Y-101829313D01*
X220132963Y-101883889D01*
X220132960Y-101883890D01*
X219967146Y-101972520D01*
X219821801Y-102091801D01*
X219702520Y-102237146D01*
X219613890Y-102402960D01*
X219613889Y-102402963D01*
X219559313Y-102582876D01*
X219559311Y-102582882D01*
X219540882Y-102770000D01*
X213500000Y-102770000D01*
X213500000Y-102053895D01*
X213504795Y-102029788D01*
X213535044Y-101956762D01*
X213555682Y-101800000D01*
X213535044Y-101643238D01*
X213535043Y-101643235D01*
X213535043Y-101643234D01*
X213504796Y-101570212D01*
X213500000Y-101546103D01*
X213500000Y-100270000D01*
X217040882Y-100270000D01*
X217059311Y-100457117D01*
X217059313Y-100457123D01*
X217113889Y-100637036D01*
X217113890Y-100637039D01*
X217202520Y-100802853D01*
X217202522Y-100802855D01*
X217202523Y-100802857D01*
X217321801Y-100948199D01*
X217467143Y-101067477D01*
X217467144Y-101067477D01*
X217467146Y-101067479D01*
X217632960Y-101156109D01*
X217632963Y-101156110D01*
X217727650Y-101184833D01*
X217812885Y-101210689D01*
X218000000Y-101229118D01*
X218187115Y-101210689D01*
X218367039Y-101156109D01*
X218532857Y-101067477D01*
X218678199Y-100948199D01*
X218797477Y-100802857D01*
X218886109Y-100637039D01*
X218940689Y-100457115D01*
X218959118Y-100270000D01*
X218940689Y-100082885D01*
X218918477Y-100009665D01*
X218886110Y-99902963D01*
X218886109Y-99902960D01*
X218797479Y-99737146D01*
X218781066Y-99717146D01*
X218678199Y-99591801D01*
X218561771Y-99496252D01*
X222045500Y-99496252D01*
X222045500Y-101043748D01*
X222057133Y-101102231D01*
X222101448Y-101168552D01*
X222167769Y-101212867D01*
X222226252Y-101224500D01*
X222226255Y-101224500D01*
X223773745Y-101224500D01*
X223773748Y-101224500D01*
X223832231Y-101212867D01*
X223898552Y-101168552D01*
X223942867Y-101102231D01*
X223954500Y-101043748D01*
X223954500Y-100250000D01*
X225040882Y-100250000D01*
X225059311Y-100437117D01*
X225059313Y-100437123D01*
X225113889Y-100617036D01*
X225113890Y-100617039D01*
X225202520Y-100782853D01*
X225202522Y-100782856D01*
X225202523Y-100782857D01*
X225321801Y-100928199D01*
X225467143Y-101047477D01*
X225467144Y-101047477D01*
X225467146Y-101047479D01*
X225632960Y-101136109D01*
X225632963Y-101136110D01*
X225739495Y-101168426D01*
X225812885Y-101190689D01*
X226000000Y-101209118D01*
X226187115Y-101190689D01*
X226367039Y-101136109D01*
X226532857Y-101047477D01*
X226678199Y-100928199D01*
X226797477Y-100782857D01*
X226886109Y-100617039D01*
X226940689Y-100437115D01*
X226959118Y-100250000D01*
X226940689Y-100062885D01*
X226918477Y-99989665D01*
X226886110Y-99882963D01*
X226886109Y-99882960D01*
X226797479Y-99717146D01*
X226787485Y-99704968D01*
X226678199Y-99571801D01*
X226561771Y-99476252D01*
X230045500Y-99476252D01*
X230045500Y-101023748D01*
X230057133Y-101082231D01*
X230101448Y-101148552D01*
X230167769Y-101192867D01*
X230226252Y-101204500D01*
X230226255Y-101204500D01*
X231773745Y-101204500D01*
X231773748Y-101204500D01*
X231832231Y-101192867D01*
X231898552Y-101148552D01*
X231942867Y-101082231D01*
X231954500Y-101023748D01*
X231954500Y-99476252D01*
X231942867Y-99417769D01*
X231898552Y-99351448D01*
X231832231Y-99307133D01*
X231773748Y-99295500D01*
X230226252Y-99295500D01*
X230182389Y-99304224D01*
X230167768Y-99307133D01*
X230101449Y-99351447D01*
X230101447Y-99351449D01*
X230057133Y-99417768D01*
X230057133Y-99417769D01*
X230045500Y-99476252D01*
X226561771Y-99476252D01*
X226532857Y-99452523D01*
X226532856Y-99452522D01*
X226532853Y-99452520D01*
X226367039Y-99363890D01*
X226367036Y-99363889D01*
X226187123Y-99309313D01*
X226187117Y-99309311D01*
X226000000Y-99290882D01*
X225812882Y-99309311D01*
X225812876Y-99309313D01*
X225632963Y-99363889D01*
X225632960Y-99363890D01*
X225467146Y-99452520D01*
X225321801Y-99571801D01*
X225202520Y-99717146D01*
X225113890Y-99882960D01*
X225113889Y-99882963D01*
X225059313Y-100062876D01*
X225059311Y-100062882D01*
X225040882Y-100250000D01*
X223954500Y-100250000D01*
X223954500Y-99496252D01*
X223942867Y-99437769D01*
X223898552Y-99371448D01*
X223832231Y-99327133D01*
X223773748Y-99315500D01*
X222226252Y-99315500D01*
X222182389Y-99324224D01*
X222167768Y-99327133D01*
X222101449Y-99371447D01*
X222101447Y-99371449D01*
X222057133Y-99437768D01*
X222057133Y-99437769D01*
X222045500Y-99496252D01*
X218561771Y-99496252D01*
X218532857Y-99472523D01*
X218532856Y-99472522D01*
X218532853Y-99472520D01*
X218367039Y-99383890D01*
X218367036Y-99383889D01*
X218187123Y-99329313D01*
X218187117Y-99329311D01*
X218000000Y-99310882D01*
X217812882Y-99329311D01*
X217812876Y-99329313D01*
X217632963Y-99383889D01*
X217632960Y-99383890D01*
X217467146Y-99472520D01*
X217321801Y-99591801D01*
X217202520Y-99737146D01*
X217113890Y-99902960D01*
X217113889Y-99902963D01*
X217059313Y-100082876D01*
X217059311Y-100082882D01*
X217040882Y-100270000D01*
X213500000Y-100270000D01*
X213500000Y-94599999D01*
X234394318Y-94599999D01*
X234394318Y-94600000D01*
X234414956Y-94756763D01*
X234414956Y-94756766D01*
X234475463Y-94902839D01*
X234475464Y-94902841D01*
X234571714Y-95028278D01*
X234571721Y-95028285D01*
X234665798Y-95100472D01*
X234697159Y-95124536D01*
X234789274Y-95162691D01*
X234843235Y-95185043D01*
X234843238Y-95185044D01*
X235000000Y-95205682D01*
X235156762Y-95185044D01*
X235156764Y-95185043D01*
X235156766Y-95185043D01*
X235221365Y-95158284D01*
X235302841Y-95124536D01*
X235428282Y-95028282D01*
X235524536Y-94902841D01*
X235558284Y-94821365D01*
X235585043Y-94756766D01*
X235585043Y-94756764D01*
X235585044Y-94756762D01*
X235605682Y-94600000D01*
X235585044Y-94443238D01*
X235585043Y-94443235D01*
X235585043Y-94443233D01*
X235524536Y-94297160D01*
X235524535Y-94297158D01*
X235428285Y-94171721D01*
X235428278Y-94171714D01*
X235302841Y-94075464D01*
X235302839Y-94075463D01*
X235156764Y-94014956D01*
X235000000Y-93994318D01*
X234843236Y-94014956D01*
X234843233Y-94014956D01*
X234697160Y-94075463D01*
X234697158Y-94075464D01*
X234571721Y-94171714D01*
X234571714Y-94171721D01*
X234475464Y-94297158D01*
X234475463Y-94297160D01*
X234414956Y-94443233D01*
X234414956Y-94443236D01*
X234394318Y-94599999D01*
X213500000Y-94599999D01*
X213500000Y-93025000D01*
X214294901Y-93025000D01*
X214313253Y-93211333D01*
X214313255Y-93211339D01*
X214367600Y-93390491D01*
X214367605Y-93390504D01*
X214446806Y-93538678D01*
X214455864Y-93555625D01*
X214574643Y-93700357D01*
X214719375Y-93819136D01*
X214884499Y-93907396D01*
X214884504Y-93907397D01*
X214884508Y-93907399D01*
X214974084Y-93934571D01*
X215063669Y-93961747D01*
X215250000Y-93980099D01*
X215436331Y-93961747D01*
X215615501Y-93907396D01*
X215780625Y-93819136D01*
X215925357Y-93700357D01*
X216044136Y-93555625D01*
X216132396Y-93390501D01*
X216186747Y-93211331D01*
X216205099Y-93025000D01*
X216186747Y-92838669D01*
X216132396Y-92659499D01*
X216044136Y-92494375D01*
X215925357Y-92349643D01*
X215780625Y-92230864D01*
X215763678Y-92221806D01*
X215615504Y-92142605D01*
X215615491Y-92142600D01*
X215436339Y-92088255D01*
X215436333Y-92088253D01*
X215250000Y-92069901D01*
X215063666Y-92088253D01*
X215063660Y-92088255D01*
X214884508Y-92142600D01*
X214884495Y-92142605D01*
X214719376Y-92230863D01*
X214574643Y-92349643D01*
X214455863Y-92494376D01*
X214367605Y-92659495D01*
X214367600Y-92659508D01*
X214313255Y-92838660D01*
X214313253Y-92838666D01*
X214294901Y-93025000D01*
X213500000Y-93025000D01*
X213500000Y-90485000D01*
X214239132Y-90485000D01*
X214258556Y-90682213D01*
X214258558Y-90682219D01*
X214316076Y-90871832D01*
X214316081Y-90871844D01*
X214409494Y-91046608D01*
X214453612Y-91100366D01*
X214817716Y-90736261D01*
X214849901Y-90792007D01*
X214942993Y-90885099D01*
X214998735Y-90917282D01*
X214634633Y-91281385D01*
X214688395Y-91325508D01*
X214863154Y-91418918D01*
X214863167Y-91418923D01*
X215052780Y-91476441D01*
X215052786Y-91476443D01*
X215250000Y-91495867D01*
X215447213Y-91476443D01*
X215447219Y-91476441D01*
X215636832Y-91418923D01*
X215636845Y-91418918D01*
X215811607Y-91325506D01*
X215865366Y-91281386D01*
X215501262Y-90917282D01*
X215557007Y-90885099D01*
X215650099Y-90792007D01*
X215682282Y-90736262D01*
X216046386Y-91100366D01*
X216090506Y-91046607D01*
X216183918Y-90871845D01*
X216183923Y-90871832D01*
X216241441Y-90682219D01*
X216241443Y-90682213D01*
X216260867Y-90485000D01*
X216241443Y-90287786D01*
X216241441Y-90287780D01*
X216183923Y-90098167D01*
X216183918Y-90098154D01*
X216090508Y-89923395D01*
X216046385Y-89869633D01*
X215682282Y-90233735D01*
X215650099Y-90177993D01*
X215557007Y-90084901D01*
X215501261Y-90052716D01*
X215865366Y-89688612D01*
X215811608Y-89644494D01*
X215811609Y-89644494D01*
X215636844Y-89551081D01*
X215636832Y-89551076D01*
X215447219Y-89493558D01*
X215447213Y-89493556D01*
X215250000Y-89474132D01*
X215052786Y-89493556D01*
X215052780Y-89493558D01*
X214863167Y-89551076D01*
X214863155Y-89551081D01*
X214688390Y-89644494D01*
X214634632Y-89688612D01*
X214998737Y-90052717D01*
X214942993Y-90084901D01*
X214849901Y-90177993D01*
X214817717Y-90233737D01*
X214453612Y-89869632D01*
X214409494Y-89923390D01*
X214316081Y-90098155D01*
X214316076Y-90098167D01*
X214258558Y-90287780D01*
X214258556Y-90287786D01*
X214239132Y-90485000D01*
X213500000Y-90485000D01*
X213500000Y-87945000D01*
X214294901Y-87945000D01*
X214313253Y-88131333D01*
X214313255Y-88131339D01*
X214367600Y-88310491D01*
X214367605Y-88310504D01*
X214446806Y-88458678D01*
X214455864Y-88475625D01*
X214574643Y-88620357D01*
X214719375Y-88739136D01*
X214884499Y-88827396D01*
X214884504Y-88827397D01*
X214884508Y-88827399D01*
X214974084Y-88854571D01*
X215063669Y-88881747D01*
X215250000Y-88900099D01*
X215436331Y-88881747D01*
X215615501Y-88827396D01*
X215780625Y-88739136D01*
X215925357Y-88620357D01*
X216044136Y-88475625D01*
X216132396Y-88310501D01*
X216186747Y-88131331D01*
X216205099Y-87945000D01*
X216186747Y-87758669D01*
X216132396Y-87579499D01*
X216126478Y-87568428D01*
X216080131Y-87481717D01*
X216044136Y-87414375D01*
X215925357Y-87269643D01*
X215780625Y-87150864D01*
X215763678Y-87141806D01*
X215615504Y-87062605D01*
X215615491Y-87062600D01*
X215436339Y-87008255D01*
X215436333Y-87008253D01*
X215250000Y-86989901D01*
X215063666Y-87008253D01*
X215063660Y-87008255D01*
X214884508Y-87062600D01*
X214884495Y-87062605D01*
X214719376Y-87150863D01*
X214574643Y-87269643D01*
X214455863Y-87414376D01*
X214367605Y-87579495D01*
X214367600Y-87579508D01*
X214313255Y-87758660D01*
X214313253Y-87758666D01*
X214294901Y-87945000D01*
X213500000Y-87945000D01*
X213500000Y-85563000D01*
X213518452Y-85518452D01*
X213563000Y-85500000D01*
X217499999Y-85500000D01*
X217500000Y-85500000D01*
X217500000Y-83999999D01*
X229394318Y-83999999D01*
X229394318Y-84000000D01*
X229414956Y-84156763D01*
X229414956Y-84156766D01*
X229475463Y-84302839D01*
X229475464Y-84302841D01*
X229571714Y-84428278D01*
X229571721Y-84428285D01*
X229665798Y-84500472D01*
X229697159Y-84524536D01*
X229783230Y-84560188D01*
X229843235Y-84585043D01*
X229843238Y-84585044D01*
X230000000Y-84605682D01*
X230156762Y-84585044D01*
X230156764Y-84585043D01*
X230156766Y-84585043D01*
X230221365Y-84558284D01*
X230302841Y-84524536D01*
X230428282Y-84428282D01*
X230524536Y-84302841D01*
X230558284Y-84221365D01*
X230585043Y-84156766D01*
X230585043Y-84156764D01*
X230585044Y-84156762D01*
X230605682Y-84000000D01*
X230585044Y-83843238D01*
X230585043Y-83843235D01*
X230585043Y-83843233D01*
X230524536Y-83697160D01*
X230524535Y-83697158D01*
X230428285Y-83571721D01*
X230428278Y-83571714D01*
X230302841Y-83475464D01*
X230302839Y-83475463D01*
X230156764Y-83414956D01*
X230000000Y-83394318D01*
X229843236Y-83414956D01*
X229843233Y-83414956D01*
X229697160Y-83475463D01*
X229697158Y-83475464D01*
X229571721Y-83571714D01*
X229571714Y-83571721D01*
X229475464Y-83697158D01*
X229475463Y-83697160D01*
X229414956Y-83843233D01*
X229414956Y-83843236D01*
X229394318Y-83999999D01*
X217500000Y-83999999D01*
X217500000Y-81749999D01*
X235144318Y-81749999D01*
X235144318Y-81750000D01*
X235164956Y-81906763D01*
X235164956Y-81906766D01*
X235225463Y-82052839D01*
X235225464Y-82052841D01*
X235321714Y-82178278D01*
X235321721Y-82178285D01*
X235415798Y-82250472D01*
X235447159Y-82274536D01*
X235539274Y-82312691D01*
X235593235Y-82335043D01*
X235593238Y-82335044D01*
X235750000Y-82355682D01*
X235906762Y-82335044D01*
X235906764Y-82335043D01*
X235906766Y-82335043D01*
X235971365Y-82308284D01*
X236052841Y-82274536D01*
X236178282Y-82178282D01*
X236274536Y-82052841D01*
X236308284Y-81971365D01*
X236335043Y-81906766D01*
X236335043Y-81906764D01*
X236335044Y-81906762D01*
X236355682Y-81750000D01*
X236335044Y-81593238D01*
X236335043Y-81593235D01*
X236335043Y-81593233D01*
X236274536Y-81447160D01*
X236274535Y-81447158D01*
X236178285Y-81321721D01*
X236178278Y-81321714D01*
X236052841Y-81225464D01*
X236052839Y-81225463D01*
X235906764Y-81164956D01*
X235750000Y-81144318D01*
X235593236Y-81164956D01*
X235593233Y-81164956D01*
X235447160Y-81225463D01*
X235447158Y-81225464D01*
X235321721Y-81321714D01*
X235321714Y-81321721D01*
X235225464Y-81447158D01*
X235225463Y-81447160D01*
X235164956Y-81593233D01*
X235164956Y-81593236D01*
X235144318Y-81749999D01*
X217500000Y-81749999D01*
X217500000Y-77603492D01*
X223761401Y-77603492D01*
X223761401Y-77603493D01*
X223782039Y-77760256D01*
X223782039Y-77760259D01*
X223842546Y-77906332D01*
X223842547Y-77906334D01*
X223938797Y-78031771D01*
X223938804Y-78031778D01*
X224032881Y-78103965D01*
X224064242Y-78128029D01*
X224156357Y-78166184D01*
X224210318Y-78188536D01*
X224210321Y-78188537D01*
X224367083Y-78209175D01*
X224523845Y-78188537D01*
X224523847Y-78188536D01*
X224523849Y-78188536D01*
X224588448Y-78161777D01*
X224669924Y-78128029D01*
X224795365Y-78031775D01*
X224891619Y-77906334D01*
X224925367Y-77824858D01*
X224952126Y-77760259D01*
X224952126Y-77760257D01*
X224952127Y-77760255D01*
X224972765Y-77603493D01*
X224952127Y-77446731D01*
X224952126Y-77446728D01*
X224952126Y-77446726D01*
X224891619Y-77300653D01*
X224891618Y-77300651D01*
X224795368Y-77175214D01*
X224795361Y-77175207D01*
X224669924Y-77078957D01*
X224669922Y-77078956D01*
X224523847Y-77018449D01*
X224367083Y-76997811D01*
X224210319Y-77018449D01*
X224210316Y-77018449D01*
X224064243Y-77078956D01*
X224064241Y-77078957D01*
X223938804Y-77175207D01*
X223938797Y-77175214D01*
X223842547Y-77300651D01*
X223842546Y-77300653D01*
X223782039Y-77446726D01*
X223782039Y-77446729D01*
X223761401Y-77603492D01*
X217500000Y-77603492D01*
X217500000Y-72063823D01*
X217518452Y-72019275D01*
X217563000Y-72000823D01*
X217563700Y-72000827D01*
G37*
%TD.AperFunction*%
%TD*%
%TA.AperFunction,Conductor*%
%TO.N,GND*%
G36*
X254300427Y-61160005D02*
G01*
X254465261Y-61162316D01*
X254471408Y-61162705D01*
X254799411Y-61199662D01*
X254806362Y-61200843D01*
X255096753Y-61267123D01*
X255127704Y-61274188D01*
X255134494Y-61276143D01*
X255445623Y-61385012D01*
X255452141Y-61387712D01*
X255749114Y-61530727D01*
X255755294Y-61534142D01*
X256034390Y-61709510D01*
X256040152Y-61713599D01*
X256297845Y-61919102D01*
X256303113Y-61923809D01*
X256536190Y-62156886D01*
X256540897Y-62162154D01*
X256746400Y-62419847D01*
X256750489Y-62425609D01*
X256925857Y-62704705D01*
X256929274Y-62710888D01*
X257072285Y-63007854D01*
X257074989Y-63014381D01*
X257183856Y-63325506D01*
X257185811Y-63332295D01*
X257259154Y-63653630D01*
X257260338Y-63660595D01*
X257297293Y-63988579D01*
X257297683Y-63994750D01*
X257299994Y-64159572D01*
X257300000Y-64160455D01*
X257300000Y-80637000D01*
X257281548Y-80681548D01*
X257237000Y-80700000D01*
X225663000Y-80700000D01*
X225618452Y-80681548D01*
X225600000Y-80637000D01*
X225600000Y-75199999D01*
X229344318Y-75199999D01*
X229344318Y-75200000D01*
X229364956Y-75356763D01*
X229364956Y-75356766D01*
X229425463Y-75502839D01*
X229425464Y-75502841D01*
X229521714Y-75628278D01*
X229521721Y-75628285D01*
X229615798Y-75700472D01*
X229647159Y-75724536D01*
X229739274Y-75762691D01*
X229793235Y-75785043D01*
X229793238Y-75785044D01*
X229950000Y-75805682D01*
X230106762Y-75785044D01*
X230106764Y-75785043D01*
X230106766Y-75785043D01*
X230171365Y-75758284D01*
X230252841Y-75724536D01*
X230378282Y-75628282D01*
X230474536Y-75502841D01*
X230508284Y-75421365D01*
X230535043Y-75356766D01*
X230535043Y-75356764D01*
X230535044Y-75356762D01*
X230555682Y-75200000D01*
X230535044Y-75043238D01*
X230535043Y-75043235D01*
X230535043Y-75043233D01*
X230474536Y-74897160D01*
X230474535Y-74897158D01*
X230378285Y-74771721D01*
X230378278Y-74771714D01*
X230252841Y-74675464D01*
X230252839Y-74675463D01*
X230106764Y-74614956D01*
X229950000Y-74594318D01*
X229793236Y-74614956D01*
X229793233Y-74614956D01*
X229647160Y-74675463D01*
X229647158Y-74675464D01*
X229521721Y-74771714D01*
X229521714Y-74771721D01*
X229425464Y-74897158D01*
X229425463Y-74897160D01*
X229364956Y-75043233D01*
X229364956Y-75043236D01*
X229344318Y-75199999D01*
X225600000Y-75199999D01*
X225600000Y-73249999D01*
X226144318Y-73249999D01*
X226144318Y-73250000D01*
X226164956Y-73406763D01*
X226164956Y-73406766D01*
X226225463Y-73552839D01*
X226225464Y-73552841D01*
X226321714Y-73678278D01*
X226321721Y-73678285D01*
X226415798Y-73750472D01*
X226447159Y-73774536D01*
X226539274Y-73812691D01*
X226593235Y-73835043D01*
X226593238Y-73835044D01*
X226750000Y-73855682D01*
X226906762Y-73835044D01*
X226906764Y-73835043D01*
X226906766Y-73835043D01*
X226971365Y-73808284D01*
X227052841Y-73774536D01*
X227178282Y-73678282D01*
X227274536Y-73552841D01*
X227308284Y-73471365D01*
X227335043Y-73406766D01*
X227335043Y-73406764D01*
X227335044Y-73406762D01*
X227355682Y-73250000D01*
X227335044Y-73093238D01*
X227335043Y-73093235D01*
X227335043Y-73093233D01*
X227274536Y-72947160D01*
X227274535Y-72947158D01*
X227178285Y-72821721D01*
X227178278Y-72821714D01*
X227052841Y-72725464D01*
X227052839Y-72725463D01*
X226906764Y-72664956D01*
X226750000Y-72644318D01*
X226593236Y-72664956D01*
X226593233Y-72664956D01*
X226447160Y-72725463D01*
X226447158Y-72725464D01*
X226321721Y-72821714D01*
X226321714Y-72821721D01*
X226225464Y-72947158D01*
X226225463Y-72947160D01*
X226164956Y-73093233D01*
X226164956Y-73093236D01*
X226144318Y-73249999D01*
X225600000Y-73249999D01*
X225600000Y-71000001D01*
X225600000Y-71000000D01*
X225599999Y-71000000D01*
X216500001Y-71000000D01*
X216500000Y-71000000D01*
X216500000Y-71000001D01*
X216500000Y-84437000D01*
X216481548Y-84481548D01*
X216437000Y-84500000D01*
X212500000Y-84500000D01*
X212500000Y-84500001D01*
X212500000Y-100604043D01*
X212481548Y-100648591D01*
X212437000Y-100667043D01*
X212392452Y-100648591D01*
X212378796Y-100628152D01*
X212324536Y-100497160D01*
X212324535Y-100497158D01*
X212310053Y-100478285D01*
X212278463Y-100437115D01*
X212228285Y-100371721D01*
X212228278Y-100371714D01*
X212102841Y-100275464D01*
X212102839Y-100275463D01*
X211956764Y-100214956D01*
X211800000Y-100194318D01*
X211643236Y-100214956D01*
X211643233Y-100214956D01*
X211497160Y-100275463D01*
X211497158Y-100275464D01*
X211371721Y-100371714D01*
X211371714Y-100371721D01*
X211275464Y-100497158D01*
X211275463Y-100497160D01*
X211214956Y-100643233D01*
X211214956Y-100643236D01*
X211194318Y-100799999D01*
X211194318Y-100800000D01*
X211214956Y-100956763D01*
X211214956Y-100956766D01*
X211275463Y-101102839D01*
X211275464Y-101102841D01*
X211371714Y-101228278D01*
X211371721Y-101228285D01*
X211433207Y-101275464D01*
X211497159Y-101324536D01*
X211589274Y-101362691D01*
X211643235Y-101385043D01*
X211643238Y-101385044D01*
X211800000Y-101405682D01*
X211956762Y-101385044D01*
X211956764Y-101385043D01*
X211956766Y-101385043D01*
X212021365Y-101358284D01*
X212102841Y-101324536D01*
X212228282Y-101228282D01*
X212324536Y-101102841D01*
X212351426Y-101037922D01*
X212378796Y-100971847D01*
X212412891Y-100937752D01*
X212461109Y-100937752D01*
X212495204Y-100971847D01*
X212500000Y-100995956D01*
X212500000Y-101378635D01*
X212486982Y-101416987D01*
X212425462Y-101497161D01*
X212364956Y-101643233D01*
X212364956Y-101643236D01*
X212344318Y-101799999D01*
X212344318Y-101800000D01*
X212364956Y-101956763D01*
X212364956Y-101956766D01*
X212420891Y-102091801D01*
X212425464Y-102102841D01*
X212486981Y-102183012D01*
X212500000Y-102221363D01*
X212500000Y-117097000D01*
X212481548Y-117141548D01*
X212437000Y-117160000D01*
X195300455Y-117160000D01*
X195299572Y-117159994D01*
X195134750Y-117157683D01*
X195128579Y-117157293D01*
X194800595Y-117120338D01*
X194793630Y-117119154D01*
X194472295Y-117045811D01*
X194465506Y-117043856D01*
X194154381Y-116934989D01*
X194147854Y-116932285D01*
X193850888Y-116789274D01*
X193844705Y-116785857D01*
X193565609Y-116610489D01*
X193559847Y-116606400D01*
X193302154Y-116400897D01*
X193296886Y-116396190D01*
X193063809Y-116163113D01*
X193059102Y-116157845D01*
X192853599Y-115900152D01*
X192849510Y-115894390D01*
X192674142Y-115615294D01*
X192670725Y-115609111D01*
X192570022Y-115399999D01*
X193994318Y-115399999D01*
X193994318Y-115400000D01*
X194014956Y-115556763D01*
X194014956Y-115556766D01*
X194075463Y-115702839D01*
X194075464Y-115702841D01*
X194171714Y-115828278D01*
X194171721Y-115828285D01*
X194257872Y-115894390D01*
X194297159Y-115924536D01*
X194389274Y-115962691D01*
X194443235Y-115985043D01*
X194443238Y-115985044D01*
X194600000Y-116005682D01*
X194756762Y-115985044D01*
X194756764Y-115985043D01*
X194756766Y-115985043D01*
X194821365Y-115958284D01*
X194902841Y-115924536D01*
X195028282Y-115828282D01*
X195124536Y-115702841D01*
X195163360Y-115609111D01*
X195185043Y-115556766D01*
X195185043Y-115556764D01*
X195185044Y-115556762D01*
X195205682Y-115400000D01*
X195185044Y-115243238D01*
X195185043Y-115243235D01*
X195185043Y-115243233D01*
X195124536Y-115097160D01*
X195124535Y-115097158D01*
X195028285Y-114971721D01*
X195028278Y-114971714D01*
X194902841Y-114875464D01*
X194902839Y-114875463D01*
X194756764Y-114814956D01*
X194600000Y-114794318D01*
X194443236Y-114814956D01*
X194443233Y-114814956D01*
X194297160Y-114875463D01*
X194297158Y-114875464D01*
X194171721Y-114971714D01*
X194171714Y-114971721D01*
X194075464Y-115097158D01*
X194075463Y-115097160D01*
X194014956Y-115243233D01*
X194014956Y-115243236D01*
X193994318Y-115399999D01*
X192570022Y-115399999D01*
X192527714Y-115312145D01*
X192525010Y-115305618D01*
X192416143Y-114994493D01*
X192414188Y-114987704D01*
X192340845Y-114666369D01*
X192339661Y-114659404D01*
X192302705Y-114331408D01*
X192302316Y-114325261D01*
X192300006Y-114160427D01*
X192300000Y-114159544D01*
X192300000Y-112799999D01*
X197994318Y-112799999D01*
X197994318Y-112800000D01*
X198014956Y-112956763D01*
X198014956Y-112956766D01*
X198075463Y-113102839D01*
X198075464Y-113102841D01*
X198171714Y-113228278D01*
X198171721Y-113228285D01*
X198265798Y-113300472D01*
X198297159Y-113324536D01*
X198389274Y-113362691D01*
X198443235Y-113385043D01*
X198443238Y-113385044D01*
X198600000Y-113405682D01*
X198756762Y-113385044D01*
X198756764Y-113385043D01*
X198756766Y-113385043D01*
X198821365Y-113358284D01*
X198902841Y-113324536D01*
X199028282Y-113228282D01*
X199124536Y-113102841D01*
X199158284Y-113021365D01*
X199185043Y-112956766D01*
X199185043Y-112956764D01*
X199185044Y-112956762D01*
X199205682Y-112800000D01*
X199185044Y-112643238D01*
X199185043Y-112643235D01*
X199185043Y-112643233D01*
X199124536Y-112497160D01*
X199124535Y-112497158D01*
X199028285Y-112371721D01*
X199028278Y-112371714D01*
X198902841Y-112275464D01*
X198902839Y-112275463D01*
X198756764Y-112214956D01*
X198600000Y-112194318D01*
X198443236Y-112214956D01*
X198443233Y-112214956D01*
X198297160Y-112275463D01*
X198297158Y-112275464D01*
X198171721Y-112371714D01*
X198171714Y-112371721D01*
X198075464Y-112497158D01*
X198075463Y-112497160D01*
X198014956Y-112643233D01*
X198014956Y-112643236D01*
X197994318Y-112799999D01*
X192300000Y-112799999D01*
X192300000Y-108500000D01*
X193904417Y-108500000D01*
X193924700Y-108705936D01*
X193924702Y-108705942D01*
X193984766Y-108903952D01*
X193984767Y-108903954D01*
X194082312Y-109086446D01*
X194082314Y-109086449D01*
X194082315Y-109086450D01*
X194213590Y-109246410D01*
X194373550Y-109377685D01*
X194373551Y-109377685D01*
X194373553Y-109377687D01*
X194556045Y-109475232D01*
X194556047Y-109475233D01*
X194698763Y-109518524D01*
X194754066Y-109535300D01*
X194960000Y-109555583D01*
X195165934Y-109535300D01*
X195301121Y-109494292D01*
X195363952Y-109475233D01*
X195363954Y-109475232D01*
X195429591Y-109440148D01*
X195546450Y-109377685D01*
X195706410Y-109246410D01*
X195837685Y-109086450D01*
X195935232Y-108903954D01*
X195936054Y-108901246D01*
X195977550Y-108764447D01*
X195995300Y-108705934D01*
X196015583Y-108500000D01*
X196002976Y-108371999D01*
X196401122Y-108371999D01*
X196401123Y-108372000D01*
X197016660Y-108372000D01*
X197000000Y-108434174D01*
X197000000Y-108565826D01*
X197016660Y-108628000D01*
X196401122Y-108628000D01*
X196408172Y-108704091D01*
X196408172Y-108704093D01*
X196464268Y-108901246D01*
X196555629Y-109084723D01*
X196555634Y-109084731D01*
X196679151Y-109248294D01*
X196679158Y-109248301D01*
X196830629Y-109386386D01*
X196830628Y-109386386D01*
X197004902Y-109494292D01*
X197196028Y-109568334D01*
X197196039Y-109568337D01*
X197371999Y-109601230D01*
X197372000Y-109601230D01*
X197372000Y-108983340D01*
X197434174Y-109000000D01*
X197565826Y-109000000D01*
X197628000Y-108983340D01*
X197628000Y-109601230D01*
X197803960Y-109568337D01*
X197803971Y-109568334D01*
X197995097Y-109494292D01*
X198169370Y-109386386D01*
X198320841Y-109248301D01*
X198320848Y-109248294D01*
X198444365Y-109084731D01*
X198444370Y-109084723D01*
X198535731Y-108901246D01*
X198539144Y-108889252D01*
X203099500Y-108889252D01*
X203099500Y-111328748D01*
X203111133Y-111387231D01*
X203155448Y-111453552D01*
X203221769Y-111497867D01*
X203280252Y-111509500D01*
X203280255Y-111509500D01*
X205719745Y-111509500D01*
X205719748Y-111509500D01*
X205778231Y-111497867D01*
X205844552Y-111453552D01*
X205888867Y-111387231D01*
X205900500Y-111328748D01*
X205900500Y-110109000D01*
X206594700Y-110109000D01*
X206613865Y-110340299D01*
X206613867Y-110340311D01*
X206670840Y-110565293D01*
X206764077Y-110777851D01*
X206764079Y-110777854D01*
X206891019Y-110972150D01*
X206891021Y-110972153D01*
X207048216Y-111142913D01*
X207231374Y-111285470D01*
X207435497Y-111395936D01*
X207435506Y-111395939D01*
X207655012Y-111471296D01*
X207655013Y-111471297D01*
X207883950Y-111509500D01*
X207883951Y-111509500D01*
X208116050Y-111509500D01*
X208230939Y-111490328D01*
X208344981Y-111471298D01*
X208344981Y-111471297D01*
X208344986Y-111471297D01*
X208344987Y-111471296D01*
X208445074Y-111436936D01*
X208564503Y-111395936D01*
X208768626Y-111285470D01*
X208951784Y-111142913D01*
X209108979Y-110972153D01*
X209235924Y-110777849D01*
X209329157Y-110565300D01*
X209386134Y-110340305D01*
X209405300Y-110109000D01*
X209386134Y-109877695D01*
X209329157Y-109652700D01*
X209235924Y-109440151D01*
X209108979Y-109245847D01*
X208951784Y-109075087D01*
X208768626Y-108932530D01*
X208768624Y-108932529D01*
X208768623Y-108932528D01*
X208564505Y-108822065D01*
X208564493Y-108822060D01*
X208344987Y-108746703D01*
X208344986Y-108746702D01*
X208116050Y-108708500D01*
X208116049Y-108708500D01*
X207883951Y-108708500D01*
X207883950Y-108708500D01*
X207655013Y-108746702D01*
X207655012Y-108746703D01*
X207435506Y-108822060D01*
X207435494Y-108822065D01*
X207231376Y-108932528D01*
X207231372Y-108932531D01*
X207144688Y-109000000D01*
X207048216Y-109075087D01*
X207039338Y-109084731D01*
X206891019Y-109245849D01*
X206764079Y-109440145D01*
X206764077Y-109440148D01*
X206670840Y-109652706D01*
X206613867Y-109877688D01*
X206613865Y-109877700D01*
X206594700Y-110109000D01*
X205900500Y-110109000D01*
X205900500Y-108889252D01*
X205888867Y-108830769D01*
X205844552Y-108764448D01*
X205778231Y-108720133D01*
X205719748Y-108708500D01*
X203280252Y-108708500D01*
X203236389Y-108717224D01*
X203221768Y-108720133D01*
X203155449Y-108764447D01*
X203155447Y-108764449D01*
X203111133Y-108830768D01*
X203111133Y-108830769D01*
X203099500Y-108889252D01*
X198539144Y-108889252D01*
X198591827Y-108704093D01*
X198591827Y-108704091D01*
X198598878Y-108628000D01*
X197983340Y-108628000D01*
X198000000Y-108565826D01*
X198000000Y-108434174D01*
X197983340Y-108372000D01*
X198598877Y-108372000D01*
X198598877Y-108371999D01*
X198591827Y-108295908D01*
X198591827Y-108295906D01*
X198535731Y-108098753D01*
X198444370Y-107915276D01*
X198444365Y-107915268D01*
X198320848Y-107751705D01*
X198320841Y-107751698D01*
X198169370Y-107613613D01*
X198169371Y-107613613D01*
X197995097Y-107505707D01*
X197803971Y-107431665D01*
X197803961Y-107431662D01*
X197628000Y-107398768D01*
X197628000Y-108016659D01*
X197565826Y-108000000D01*
X197434174Y-108000000D01*
X197372000Y-108016659D01*
X197372000Y-107398768D01*
X197196038Y-107431662D01*
X197196028Y-107431665D01*
X197004902Y-107505707D01*
X196830629Y-107613613D01*
X196679158Y-107751698D01*
X196679151Y-107751705D01*
X196555634Y-107915268D01*
X196555629Y-107915276D01*
X196464268Y-108098753D01*
X196408172Y-108295906D01*
X196408172Y-108295908D01*
X196401122Y-108371999D01*
X196002976Y-108371999D01*
X195995300Y-108294066D01*
X195958187Y-108171718D01*
X195935233Y-108096047D01*
X195935232Y-108096045D01*
X195837687Y-107913553D01*
X195744497Y-107800000D01*
X195706410Y-107753590D01*
X195546450Y-107622315D01*
X195546449Y-107622314D01*
X195546446Y-107622312D01*
X195363954Y-107524767D01*
X195363952Y-107524766D01*
X195165942Y-107464702D01*
X195165936Y-107464700D01*
X194960000Y-107444417D01*
X194754063Y-107464700D01*
X194754057Y-107464702D01*
X194556047Y-107524766D01*
X194556045Y-107524767D01*
X194373553Y-107622312D01*
X194213590Y-107753590D01*
X194082312Y-107913553D01*
X193984767Y-108096045D01*
X193984766Y-108096047D01*
X193924702Y-108294057D01*
X193924700Y-108294063D01*
X193904417Y-108500000D01*
X192300000Y-108500000D01*
X192300000Y-105960000D01*
X193904417Y-105960000D01*
X193924700Y-106165936D01*
X193924702Y-106165942D01*
X193984766Y-106363952D01*
X193984767Y-106363954D01*
X194082312Y-106546446D01*
X194082314Y-106546449D01*
X194082315Y-106546450D01*
X194213590Y-106706410D01*
X194373550Y-106837685D01*
X194373551Y-106837685D01*
X194373553Y-106837687D01*
X194556045Y-106935232D01*
X194556047Y-106935233D01*
X194698763Y-106978524D01*
X194754066Y-106995300D01*
X194960000Y-107015583D01*
X195165934Y-106995300D01*
X195283378Y-106959674D01*
X195363952Y-106935233D01*
X195363954Y-106935232D01*
X195546446Y-106837687D01*
X195546445Y-106837687D01*
X195546450Y-106837685D01*
X195706410Y-106706410D01*
X195837685Y-106546450D01*
X195935232Y-106363954D01*
X195995300Y-106165934D01*
X196015583Y-105960000D01*
X196444417Y-105960000D01*
X196464700Y-106165936D01*
X196464702Y-106165942D01*
X196524766Y-106363952D01*
X196524767Y-106363954D01*
X196622312Y-106546446D01*
X196622314Y-106546449D01*
X196622315Y-106546450D01*
X196753590Y-106706410D01*
X196913550Y-106837685D01*
X196913551Y-106837685D01*
X196913553Y-106837687D01*
X197096045Y-106935232D01*
X197096047Y-106935233D01*
X197238763Y-106978524D01*
X197294066Y-106995300D01*
X197500000Y-107015583D01*
X197705934Y-106995300D01*
X197823378Y-106959674D01*
X197903952Y-106935233D01*
X197903954Y-106935232D01*
X198086446Y-106837687D01*
X198086445Y-106837687D01*
X198086450Y-106837685D01*
X198246410Y-106706410D01*
X198377685Y-106546450D01*
X198475232Y-106363954D01*
X198535300Y-106165934D01*
X198555583Y-105960000D01*
X198535300Y-105754066D01*
X198518524Y-105698763D01*
X198475233Y-105556047D01*
X198475232Y-105556045D01*
X198377687Y-105373553D01*
X198377685Y-105373550D01*
X198246410Y-105213590D01*
X198086450Y-105082315D01*
X198086449Y-105082314D01*
X198086446Y-105082312D01*
X197903954Y-104984767D01*
X197903952Y-104984766D01*
X197705942Y-104924702D01*
X197705936Y-104924700D01*
X197500000Y-104904417D01*
X197294063Y-104924700D01*
X197294057Y-104924702D01*
X197096047Y-104984766D01*
X197096045Y-104984767D01*
X196913553Y-105082312D01*
X196753590Y-105213590D01*
X196622312Y-105373553D01*
X196524767Y-105556045D01*
X196524766Y-105556047D01*
X196464702Y-105754057D01*
X196464700Y-105754063D01*
X196444417Y-105960000D01*
X196015583Y-105960000D01*
X195995300Y-105754066D01*
X195978524Y-105698763D01*
X195935233Y-105556047D01*
X195935232Y-105556045D01*
X195837687Y-105373553D01*
X195837685Y-105373550D01*
X195706410Y-105213590D01*
X195546450Y-105082315D01*
X195546449Y-105082314D01*
X195546446Y-105082312D01*
X195363954Y-104984767D01*
X195363952Y-104984766D01*
X195165942Y-104924702D01*
X195165936Y-104924700D01*
X194960000Y-104904417D01*
X194754063Y-104924700D01*
X194754057Y-104924702D01*
X194556047Y-104984766D01*
X194556045Y-104984767D01*
X194373553Y-105082312D01*
X194213590Y-105213590D01*
X194082312Y-105373553D01*
X193984767Y-105556045D01*
X193984766Y-105556047D01*
X193924702Y-105754057D01*
X193924700Y-105754063D01*
X193904417Y-105960000D01*
X192300000Y-105960000D01*
X192300000Y-103420000D01*
X193904417Y-103420000D01*
X193924700Y-103625936D01*
X193924702Y-103625942D01*
X193984766Y-103823952D01*
X193984767Y-103823954D01*
X194082312Y-104006446D01*
X194082314Y-104006449D01*
X194082315Y-104006450D01*
X194213590Y-104166410D01*
X194373550Y-104297685D01*
X194373551Y-104297685D01*
X194373553Y-104297687D01*
X194556045Y-104395232D01*
X194556047Y-104395233D01*
X194698763Y-104438524D01*
X194754066Y-104455300D01*
X194960000Y-104475583D01*
X195165934Y-104455300D01*
X195283378Y-104419674D01*
X195363952Y-104395233D01*
X195363954Y-104395232D01*
X195546446Y-104297687D01*
X195546445Y-104297687D01*
X195546450Y-104297685D01*
X195706410Y-104166410D01*
X195837685Y-104006450D01*
X195935232Y-103823954D01*
X195995300Y-103625934D01*
X196015583Y-103420000D01*
X196444417Y-103420000D01*
X196464700Y-103625936D01*
X196464702Y-103625942D01*
X196524766Y-103823952D01*
X196524767Y-103823954D01*
X196622312Y-104006446D01*
X196622314Y-104006449D01*
X196622315Y-104006450D01*
X196753590Y-104166410D01*
X196913550Y-104297685D01*
X196913551Y-104297685D01*
X196913553Y-104297687D01*
X197096045Y-104395232D01*
X197096047Y-104395233D01*
X197238763Y-104438524D01*
X197294066Y-104455300D01*
X197500000Y-104475583D01*
X197705934Y-104455300D01*
X197823378Y-104419674D01*
X197903952Y-104395233D01*
X197903954Y-104395232D01*
X198086446Y-104297687D01*
X198086445Y-104297687D01*
X198086450Y-104297685D01*
X198246410Y-104166410D01*
X198377685Y-104006450D01*
X198475232Y-103823954D01*
X198535300Y-103625934D01*
X198555583Y-103420000D01*
X198535300Y-103214066D01*
X198505868Y-103117039D01*
X198475233Y-103016047D01*
X198475232Y-103016045D01*
X198377687Y-102833553D01*
X198377685Y-102833550D01*
X198246410Y-102673590D01*
X198086450Y-102542315D01*
X198086449Y-102542314D01*
X198086446Y-102542312D01*
X197903954Y-102444767D01*
X197903952Y-102444766D01*
X197705942Y-102384702D01*
X197705936Y-102384700D01*
X197500000Y-102364417D01*
X197294063Y-102384700D01*
X197294057Y-102384702D01*
X197096047Y-102444766D01*
X197096045Y-102444767D01*
X196913553Y-102542312D01*
X196753590Y-102673590D01*
X196622312Y-102833553D01*
X196524767Y-103016045D01*
X196524766Y-103016047D01*
X196464702Y-103214057D01*
X196464700Y-103214063D01*
X196444417Y-103420000D01*
X196015583Y-103420000D01*
X195995300Y-103214066D01*
X195965868Y-103117039D01*
X195935233Y-103016047D01*
X195935232Y-103016045D01*
X195837687Y-102833553D01*
X195837685Y-102833550D01*
X195706410Y-102673590D01*
X195546450Y-102542315D01*
X195546449Y-102542314D01*
X195546446Y-102542312D01*
X195363954Y-102444767D01*
X195363952Y-102444766D01*
X195165942Y-102384702D01*
X195165936Y-102384700D01*
X194960000Y-102364417D01*
X194754063Y-102384700D01*
X194754057Y-102384702D01*
X194556047Y-102444766D01*
X194556045Y-102444767D01*
X194373553Y-102542312D01*
X194213590Y-102673590D01*
X194082312Y-102833553D01*
X193984767Y-103016045D01*
X193984766Y-103016047D01*
X193924702Y-103214057D01*
X193924700Y-103214063D01*
X193904417Y-103420000D01*
X192300000Y-103420000D01*
X192300000Y-100010252D01*
X193909500Y-100010252D01*
X193909500Y-101749748D01*
X193921133Y-101808231D01*
X193965448Y-101874552D01*
X194031769Y-101918867D01*
X194090252Y-101930500D01*
X194090255Y-101930500D01*
X195829745Y-101930500D01*
X195829748Y-101930500D01*
X195888231Y-101918867D01*
X195954552Y-101874552D01*
X195998867Y-101808231D01*
X196010500Y-101749748D01*
X196010500Y-100880000D01*
X196444417Y-100880000D01*
X196464700Y-101085936D01*
X196464702Y-101085942D01*
X196524766Y-101283952D01*
X196524767Y-101283954D01*
X196622312Y-101466446D01*
X196622314Y-101466449D01*
X196622315Y-101466450D01*
X196753590Y-101626410D01*
X196913550Y-101757685D01*
X196913551Y-101757685D01*
X196913553Y-101757687D01*
X197096045Y-101855232D01*
X197096047Y-101855233D01*
X197238763Y-101898524D01*
X197294066Y-101915300D01*
X197500000Y-101935583D01*
X197705934Y-101915300D01*
X197840264Y-101874552D01*
X197903952Y-101855233D01*
X197903954Y-101855232D01*
X198007287Y-101799999D01*
X202994318Y-101799999D01*
X202994318Y-101800000D01*
X203014956Y-101956763D01*
X203014956Y-101956766D01*
X203075463Y-102102839D01*
X203075464Y-102102841D01*
X203171714Y-102228278D01*
X203171721Y-102228285D01*
X203265798Y-102300472D01*
X203297159Y-102324536D01*
X203389274Y-102362691D01*
X203443235Y-102385043D01*
X203443238Y-102385044D01*
X203600000Y-102405682D01*
X203756762Y-102385044D01*
X203756764Y-102385043D01*
X203756766Y-102385043D01*
X203821365Y-102358284D01*
X203902841Y-102324536D01*
X204028282Y-102228282D01*
X204124536Y-102102841D01*
X204178516Y-101972523D01*
X204185043Y-101956766D01*
X204185043Y-101956764D01*
X204185044Y-101956762D01*
X204205682Y-101800000D01*
X204185044Y-101643238D01*
X204185043Y-101643235D01*
X204185043Y-101643233D01*
X204141410Y-101537896D01*
X204124536Y-101497159D01*
X204063018Y-101416987D01*
X204028285Y-101371721D01*
X204028278Y-101371714D01*
X203902841Y-101275464D01*
X203902839Y-101275463D01*
X203756764Y-101214956D01*
X203600000Y-101194318D01*
X203443236Y-101214956D01*
X203443233Y-101214956D01*
X203297160Y-101275463D01*
X203297158Y-101275464D01*
X203171721Y-101371714D01*
X203171714Y-101371721D01*
X203075464Y-101497158D01*
X203075463Y-101497160D01*
X203014956Y-101643233D01*
X203014956Y-101643236D01*
X202994318Y-101799999D01*
X198007287Y-101799999D01*
X198086446Y-101757687D01*
X198086445Y-101757687D01*
X198086450Y-101757685D01*
X198246410Y-101626410D01*
X198377685Y-101466450D01*
X198475232Y-101283954D01*
X198477808Y-101275464D01*
X198516305Y-101148552D01*
X198535300Y-101085934D01*
X198555583Y-100880000D01*
X198535300Y-100674066D01*
X198481637Y-100497160D01*
X198475233Y-100476047D01*
X198475232Y-100476045D01*
X198377687Y-100293553D01*
X198358358Y-100270000D01*
X198246410Y-100133590D01*
X198144553Y-100049999D01*
X203482908Y-100049999D01*
X203482908Y-100050000D01*
X203503546Y-100206763D01*
X203503546Y-100206766D01*
X203564053Y-100352839D01*
X203564054Y-100352841D01*
X203660304Y-100478278D01*
X203660311Y-100478285D01*
X203684910Y-100497160D01*
X203785749Y-100574536D01*
X203856985Y-100604043D01*
X203931825Y-100635043D01*
X203931828Y-100635044D01*
X204088590Y-100655682D01*
X204245352Y-100635044D01*
X204245354Y-100635043D01*
X204245356Y-100635043D01*
X204320195Y-100604043D01*
X204391431Y-100574536D01*
X204516872Y-100478282D01*
X204613126Y-100352841D01*
X204655724Y-100250000D01*
X204673633Y-100206766D01*
X204673633Y-100206764D01*
X204673634Y-100206762D01*
X204694272Y-100050000D01*
X204673634Y-99893238D01*
X204673633Y-99893235D01*
X204673633Y-99893233D01*
X204613126Y-99747160D01*
X204613125Y-99747158D01*
X204516875Y-99621721D01*
X204516868Y-99621714D01*
X204391431Y-99525464D01*
X204391429Y-99525463D01*
X204245354Y-99464956D01*
X204088590Y-99444318D01*
X203931826Y-99464956D01*
X203931823Y-99464956D01*
X203785750Y-99525463D01*
X203785748Y-99525464D01*
X203660311Y-99621714D01*
X203660304Y-99621721D01*
X203564054Y-99747158D01*
X203564053Y-99747160D01*
X203503546Y-99893233D01*
X203503546Y-99893236D01*
X203482908Y-100049999D01*
X198144553Y-100049999D01*
X198086450Y-100002315D01*
X198086449Y-100002314D01*
X198086446Y-100002312D01*
X197903954Y-99904767D01*
X197903952Y-99904766D01*
X197705942Y-99844702D01*
X197705936Y-99844700D01*
X197500000Y-99824417D01*
X197294063Y-99844700D01*
X197294057Y-99844702D01*
X197096047Y-99904766D01*
X197096045Y-99904767D01*
X196913553Y-100002312D01*
X196753590Y-100133590D01*
X196622312Y-100293553D01*
X196524767Y-100476045D01*
X196524766Y-100476047D01*
X196464702Y-100674057D01*
X196464700Y-100674063D01*
X196444417Y-100880000D01*
X196010500Y-100880000D01*
X196010500Y-100010252D01*
X195998867Y-99951769D01*
X195954552Y-99885448D01*
X195888231Y-99841133D01*
X195829748Y-99829500D01*
X194090252Y-99829500D01*
X194046389Y-99838224D01*
X194031768Y-99841133D01*
X193965449Y-99885447D01*
X193965447Y-99885449D01*
X193921133Y-99951768D01*
X193921133Y-99951769D01*
X193909500Y-100010252D01*
X192300000Y-100010252D01*
X192300000Y-98999999D01*
X206544318Y-98999999D01*
X206544318Y-99000000D01*
X206564956Y-99156763D01*
X206564956Y-99156766D01*
X206625463Y-99302839D01*
X206625464Y-99302841D01*
X206721714Y-99428278D01*
X206721721Y-99428285D01*
X206779374Y-99472523D01*
X206847159Y-99524536D01*
X206939274Y-99562691D01*
X206993235Y-99585043D01*
X206993238Y-99585044D01*
X207150000Y-99605682D01*
X207306762Y-99585044D01*
X207306764Y-99585043D01*
X207306766Y-99585043D01*
X207371365Y-99558284D01*
X207391367Y-99549999D01*
X208344318Y-99549999D01*
X208344318Y-99550000D01*
X208364956Y-99706763D01*
X208364956Y-99706766D01*
X208425463Y-99852839D01*
X208425464Y-99852841D01*
X208521714Y-99978278D01*
X208521721Y-99978285D01*
X208563382Y-100010252D01*
X208647159Y-100074536D01*
X208739274Y-100112691D01*
X208793235Y-100135043D01*
X208793238Y-100135044D01*
X208950000Y-100155682D01*
X209106762Y-100135044D01*
X209106764Y-100135043D01*
X209106766Y-100135043D01*
X209171365Y-100108284D01*
X209252841Y-100074536D01*
X209378282Y-99978282D01*
X209474536Y-99852841D01*
X209518311Y-99747159D01*
X209535043Y-99706766D01*
X209535043Y-99706764D01*
X209535044Y-99706762D01*
X209555682Y-99550000D01*
X209535044Y-99393238D01*
X209535043Y-99393235D01*
X209535043Y-99393233D01*
X209474536Y-99247160D01*
X209474535Y-99247158D01*
X209378285Y-99121721D01*
X209378278Y-99121714D01*
X209252841Y-99025464D01*
X209252839Y-99025463D01*
X209106764Y-98964956D01*
X208950000Y-98944318D01*
X208793236Y-98964956D01*
X208793233Y-98964956D01*
X208647160Y-99025463D01*
X208647158Y-99025464D01*
X208521721Y-99121714D01*
X208521714Y-99121721D01*
X208425464Y-99247158D01*
X208425463Y-99247160D01*
X208364956Y-99393233D01*
X208364956Y-99393236D01*
X208344318Y-99549999D01*
X207391367Y-99549999D01*
X207452841Y-99524536D01*
X207578282Y-99428282D01*
X207674536Y-99302841D01*
X207708284Y-99221365D01*
X207735043Y-99156766D01*
X207735043Y-99156764D01*
X207735044Y-99156762D01*
X207755682Y-99000000D01*
X207735044Y-98843238D01*
X207735043Y-98843235D01*
X207735043Y-98843233D01*
X207674536Y-98697160D01*
X207674535Y-98697158D01*
X207578285Y-98571721D01*
X207578278Y-98571714D01*
X207452841Y-98475464D01*
X207452839Y-98475463D01*
X207306764Y-98414956D01*
X207150000Y-98394318D01*
X206993236Y-98414956D01*
X206993233Y-98414956D01*
X206847160Y-98475463D01*
X206847158Y-98475464D01*
X206721721Y-98571714D01*
X206721714Y-98571721D01*
X206625464Y-98697158D01*
X206625463Y-98697160D01*
X206564956Y-98843233D01*
X206564956Y-98843236D01*
X206544318Y-98999999D01*
X192300000Y-98999999D01*
X192300000Y-98161033D01*
X192300033Y-98158986D01*
X192300116Y-98156402D01*
X192301893Y-98101763D01*
X192304000Y-98087534D01*
X192333842Y-97976034D01*
X192340122Y-97960858D01*
X192397254Y-97861769D01*
X192407237Y-97848738D01*
X192488054Y-97767780D01*
X192501063Y-97757777D01*
X192600056Y-97700468D01*
X192615222Y-97694163D01*
X192726672Y-97664127D01*
X192740894Y-97661996D01*
X192798106Y-97660035D01*
X192800146Y-97660000D01*
X196800000Y-97660000D01*
X196800015Y-97660000D01*
X196865538Y-97657862D01*
X196865544Y-97657861D01*
X196865545Y-97657861D01*
X196865545Y-97657860D01*
X196865551Y-97657860D01*
X196992160Y-97623935D01*
X196992160Y-97623934D01*
X196992167Y-97623933D01*
X197105694Y-97558388D01*
X197198388Y-97465694D01*
X197263933Y-97352167D01*
X197277150Y-97302841D01*
X197297860Y-97225551D01*
X197297862Y-97225538D01*
X197300000Y-97160015D01*
X197300000Y-96999999D01*
X203994318Y-96999999D01*
X203994318Y-97000000D01*
X204014956Y-97156763D01*
X204014956Y-97156766D01*
X204075463Y-97302839D01*
X204075464Y-97302841D01*
X204171714Y-97428278D01*
X204171721Y-97428285D01*
X204220474Y-97465694D01*
X204297159Y-97524536D01*
X204378885Y-97558388D01*
X204443235Y-97585043D01*
X204443238Y-97585044D01*
X204600000Y-97605682D01*
X204756762Y-97585044D01*
X204756764Y-97585043D01*
X204756766Y-97585043D01*
X204821365Y-97558284D01*
X204902841Y-97524536D01*
X205028282Y-97428282D01*
X205124536Y-97302841D01*
X205183697Y-97160015D01*
X205185043Y-97156766D01*
X205185043Y-97156764D01*
X205185044Y-97156762D01*
X205205682Y-97000000D01*
X205185044Y-96843238D01*
X205185043Y-96843235D01*
X205185043Y-96843233D01*
X205124536Y-96697160D01*
X205124535Y-96697158D01*
X205028285Y-96571721D01*
X205028278Y-96571714D01*
X204902841Y-96475464D01*
X204902839Y-96475463D01*
X204756764Y-96414956D01*
X204600000Y-96394318D01*
X204443236Y-96414956D01*
X204443233Y-96414956D01*
X204297160Y-96475463D01*
X204297158Y-96475464D01*
X204171721Y-96571714D01*
X204171714Y-96571721D01*
X204075464Y-96697158D01*
X204075463Y-96697160D01*
X204014956Y-96843233D01*
X204014956Y-96843236D01*
X203994318Y-96999999D01*
X197300000Y-96999999D01*
X197300000Y-87199999D01*
X206194318Y-87199999D01*
X206194318Y-87200000D01*
X206214956Y-87356763D01*
X206214956Y-87356766D01*
X206275463Y-87502839D01*
X206275464Y-87502841D01*
X206371714Y-87628278D01*
X206371721Y-87628285D01*
X206465798Y-87700472D01*
X206497159Y-87724536D01*
X206579563Y-87758669D01*
X206643235Y-87785043D01*
X206643238Y-87785044D01*
X206800000Y-87805682D01*
X206956762Y-87785044D01*
X206956764Y-87785043D01*
X206956766Y-87785043D01*
X207021365Y-87758284D01*
X207102841Y-87724536D01*
X207228282Y-87628282D01*
X207324536Y-87502841D01*
X207361180Y-87414375D01*
X207385043Y-87356766D01*
X207385043Y-87356764D01*
X207385044Y-87356762D01*
X207405682Y-87200000D01*
X207385044Y-87043238D01*
X207385043Y-87043235D01*
X207385043Y-87043233D01*
X207324536Y-86897160D01*
X207324535Y-86897158D01*
X207228285Y-86771721D01*
X207228278Y-86771714D01*
X207102841Y-86675464D01*
X207102839Y-86675463D01*
X206956764Y-86614956D01*
X206800000Y-86594318D01*
X206643236Y-86614956D01*
X206643233Y-86614956D01*
X206497160Y-86675463D01*
X206497158Y-86675464D01*
X206371721Y-86771714D01*
X206371714Y-86771721D01*
X206275464Y-86897158D01*
X206275463Y-86897160D01*
X206214956Y-87043233D01*
X206214956Y-87043236D01*
X206194318Y-87199999D01*
X197300000Y-87199999D01*
X197300000Y-82865000D01*
X214239132Y-82865000D01*
X214258556Y-83062213D01*
X214258558Y-83062219D01*
X214316076Y-83251832D01*
X214316081Y-83251844D01*
X214409494Y-83426608D01*
X214453612Y-83480366D01*
X214817716Y-83116261D01*
X214849901Y-83172007D01*
X214942993Y-83265099D01*
X214998735Y-83297282D01*
X214634633Y-83661385D01*
X214688395Y-83705508D01*
X214863154Y-83798918D01*
X214863167Y-83798923D01*
X215052780Y-83856441D01*
X215052786Y-83856443D01*
X215250000Y-83875867D01*
X215447213Y-83856443D01*
X215447219Y-83856441D01*
X215636832Y-83798923D01*
X215636845Y-83798918D01*
X215811607Y-83705506D01*
X215865366Y-83661386D01*
X215501262Y-83297282D01*
X215557007Y-83265099D01*
X215650099Y-83172007D01*
X215682282Y-83116262D01*
X216046386Y-83480366D01*
X216090506Y-83426607D01*
X216183918Y-83251845D01*
X216183923Y-83251832D01*
X216241441Y-83062219D01*
X216241443Y-83062213D01*
X216260867Y-82865000D01*
X216241443Y-82667786D01*
X216241441Y-82667780D01*
X216183923Y-82478167D01*
X216183918Y-82478154D01*
X216090508Y-82303395D01*
X216046385Y-82249633D01*
X215682282Y-82613735D01*
X215650099Y-82557993D01*
X215557007Y-82464901D01*
X215501261Y-82432716D01*
X215865366Y-82068612D01*
X215811608Y-82024494D01*
X215811609Y-82024494D01*
X215636844Y-81931081D01*
X215636832Y-81931076D01*
X215447219Y-81873558D01*
X215447213Y-81873556D01*
X215250000Y-81854132D01*
X215052786Y-81873556D01*
X215052780Y-81873558D01*
X214863167Y-81931076D01*
X214863155Y-81931081D01*
X214688390Y-82024494D01*
X214634632Y-82068612D01*
X214998737Y-82432717D01*
X214942993Y-82464901D01*
X214849901Y-82557993D01*
X214817717Y-82613737D01*
X214453612Y-82249632D01*
X214409494Y-82303390D01*
X214316081Y-82478155D01*
X214316076Y-82478167D01*
X214258558Y-82667780D01*
X214258556Y-82667786D01*
X214239132Y-82865000D01*
X197300000Y-82865000D01*
X197300000Y-81159984D01*
X197297862Y-81094461D01*
X197297860Y-81094448D01*
X197263935Y-80967839D01*
X197263934Y-80967837D01*
X197263933Y-80967833D01*
X197198388Y-80854306D01*
X197144081Y-80799999D01*
X205194318Y-80799999D01*
X205194318Y-80800000D01*
X205214956Y-80956763D01*
X205214956Y-80956766D01*
X205275463Y-81102839D01*
X205275464Y-81102841D01*
X205371714Y-81228278D01*
X205371721Y-81228285D01*
X205418092Y-81263866D01*
X205497159Y-81324536D01*
X205589274Y-81362691D01*
X205643235Y-81385043D01*
X205643238Y-81385044D01*
X205800000Y-81405682D01*
X205956762Y-81385044D01*
X205956764Y-81385043D01*
X205956766Y-81385043D01*
X206021365Y-81358284D01*
X206102841Y-81324536D01*
X206228282Y-81228282D01*
X206324536Y-81102841D01*
X206380457Y-80967837D01*
X206385043Y-80956766D01*
X206385043Y-80956764D01*
X206385044Y-80956762D01*
X206405682Y-80800000D01*
X206385044Y-80643238D01*
X206385043Y-80643235D01*
X206385043Y-80643233D01*
X206324536Y-80497160D01*
X206324535Y-80497158D01*
X206228285Y-80371721D01*
X206228278Y-80371714D01*
X206102841Y-80275464D01*
X206102839Y-80275463D01*
X205956764Y-80214956D01*
X205800000Y-80194318D01*
X205643236Y-80214956D01*
X205643233Y-80214956D01*
X205497160Y-80275463D01*
X205497158Y-80275464D01*
X205371721Y-80371714D01*
X205371714Y-80371721D01*
X205275464Y-80497158D01*
X205275463Y-80497160D01*
X205214956Y-80643233D01*
X205214956Y-80643236D01*
X205194318Y-80799999D01*
X197144081Y-80799999D01*
X197105694Y-80761612D01*
X196992167Y-80696067D01*
X196992164Y-80696066D01*
X196992160Y-80696064D01*
X196865551Y-80662139D01*
X196865538Y-80662137D01*
X196800015Y-80660000D01*
X196800000Y-80660000D01*
X192801013Y-80660000D01*
X192798958Y-80659966D01*
X192741701Y-80658097D01*
X192727451Y-80655984D01*
X192615847Y-80626080D01*
X192600652Y-80619787D01*
X192501489Y-80562535D01*
X192488441Y-80552523D01*
X192407476Y-80471558D01*
X192397464Y-80458510D01*
X192340211Y-80359344D01*
X192333919Y-80344152D01*
X192304014Y-80232544D01*
X192301902Y-80218297D01*
X192300034Y-80161040D01*
X192300000Y-80158986D01*
X192300000Y-79555252D01*
X214299500Y-79555252D01*
X214299500Y-81094748D01*
X214311133Y-81153231D01*
X214355448Y-81219552D01*
X214421769Y-81263867D01*
X214480252Y-81275500D01*
X214480255Y-81275500D01*
X216019745Y-81275500D01*
X216019748Y-81275500D01*
X216078231Y-81263867D01*
X216144552Y-81219552D01*
X216188867Y-81153231D01*
X216200500Y-81094748D01*
X216200500Y-79555252D01*
X216188867Y-79496769D01*
X216144552Y-79430448D01*
X216078231Y-79386133D01*
X216019748Y-79374500D01*
X214480252Y-79374500D01*
X214436389Y-79383224D01*
X214421768Y-79386133D01*
X214355449Y-79430447D01*
X214355447Y-79430449D01*
X214311133Y-79496768D01*
X214311133Y-79496769D01*
X214299500Y-79555252D01*
X192300000Y-79555252D01*
X192300000Y-65070252D01*
X199599500Y-65070252D01*
X199599500Y-66809748D01*
X199611133Y-66868231D01*
X199655448Y-66934552D01*
X199721769Y-66978867D01*
X199780252Y-66990500D01*
X199780255Y-66990500D01*
X201519745Y-66990500D01*
X201519748Y-66990500D01*
X201578231Y-66978867D01*
X201644552Y-66934552D01*
X201688867Y-66868231D01*
X201700500Y-66809748D01*
X201700500Y-65940000D01*
X202134417Y-65940000D01*
X202154700Y-66145936D01*
X202154702Y-66145942D01*
X202214766Y-66343952D01*
X202214767Y-66343954D01*
X202312312Y-66526446D01*
X202312314Y-66526449D01*
X202312315Y-66526450D01*
X202443590Y-66686410D01*
X202603550Y-66817685D01*
X202603551Y-66817685D01*
X202603553Y-66817687D01*
X202786045Y-66915232D01*
X202786047Y-66915233D01*
X202928763Y-66958524D01*
X202984066Y-66975300D01*
X203190000Y-66995583D01*
X203395934Y-66975300D01*
X203530264Y-66934552D01*
X203593952Y-66915233D01*
X203593954Y-66915232D01*
X203681886Y-66868231D01*
X203776450Y-66817685D01*
X203936410Y-66686410D01*
X204067685Y-66526450D01*
X204165232Y-66343954D01*
X204166054Y-66341246D01*
X204194640Y-66247007D01*
X204225300Y-66145934D01*
X204245583Y-65940000D01*
X204674417Y-65940000D01*
X204694700Y-66145936D01*
X204694702Y-66145942D01*
X204754766Y-66343952D01*
X204754767Y-66343954D01*
X204852312Y-66526446D01*
X204852314Y-66526449D01*
X204852315Y-66526450D01*
X204983590Y-66686410D01*
X205143550Y-66817685D01*
X205143551Y-66817685D01*
X205143553Y-66817687D01*
X205326045Y-66915232D01*
X205326047Y-66915233D01*
X205468763Y-66958524D01*
X205524066Y-66975300D01*
X205730000Y-66995583D01*
X205935934Y-66975300D01*
X206070264Y-66934552D01*
X206133952Y-66915233D01*
X206133954Y-66915232D01*
X206221886Y-66868231D01*
X206316450Y-66817685D01*
X206476410Y-66686410D01*
X206607685Y-66526450D01*
X206705232Y-66343954D01*
X206706054Y-66341246D01*
X206734640Y-66247007D01*
X206765300Y-66145934D01*
X206785583Y-65940000D01*
X207214417Y-65940000D01*
X207234700Y-66145936D01*
X207234702Y-66145942D01*
X207294766Y-66343952D01*
X207294767Y-66343954D01*
X207392312Y-66526446D01*
X207392314Y-66526449D01*
X207392315Y-66526450D01*
X207523590Y-66686410D01*
X207683550Y-66817685D01*
X207683551Y-66817685D01*
X207683553Y-66817687D01*
X207866045Y-66915232D01*
X207866047Y-66915233D01*
X208008763Y-66958524D01*
X208064066Y-66975300D01*
X208270000Y-66995583D01*
X208475934Y-66975300D01*
X208610264Y-66934552D01*
X208673952Y-66915233D01*
X208673954Y-66915232D01*
X208761886Y-66868231D01*
X208856450Y-66817685D01*
X209016410Y-66686410D01*
X209147685Y-66526450D01*
X209245232Y-66343954D01*
X209246054Y-66341246D01*
X209274640Y-66247007D01*
X209305300Y-66145934D01*
X209325583Y-65940000D01*
X209312976Y-65811999D01*
X209711122Y-65811999D01*
X209711123Y-65812000D01*
X210326660Y-65812000D01*
X210310000Y-65874174D01*
X210310000Y-66005826D01*
X210326660Y-66068000D01*
X209711122Y-66068000D01*
X209718172Y-66144091D01*
X209718172Y-66144093D01*
X209774268Y-66341246D01*
X209865629Y-66524723D01*
X209865634Y-66524731D01*
X209989151Y-66688294D01*
X209989158Y-66688301D01*
X210140629Y-66826386D01*
X210140628Y-66826386D01*
X210314902Y-66934292D01*
X210506028Y-67008334D01*
X210506039Y-67008337D01*
X210681999Y-67041230D01*
X210682000Y-67041230D01*
X210682000Y-66423340D01*
X210744174Y-66440000D01*
X210875826Y-66440000D01*
X210938000Y-66423340D01*
X210938000Y-67041230D01*
X211113960Y-67008337D01*
X211113971Y-67008334D01*
X211305097Y-66934292D01*
X211479370Y-66826386D01*
X211630841Y-66688301D01*
X211630848Y-66688294D01*
X211754365Y-66524731D01*
X211754370Y-66524723D01*
X211845731Y-66341246D01*
X211901827Y-66144093D01*
X211901827Y-66144091D01*
X211908878Y-66068000D01*
X211293340Y-66068000D01*
X211310000Y-66005826D01*
X211310000Y-65940000D01*
X212294417Y-65940000D01*
X212314700Y-66145936D01*
X212314702Y-66145942D01*
X212374766Y-66343952D01*
X212374767Y-66343954D01*
X212472312Y-66526446D01*
X212472314Y-66526449D01*
X212472315Y-66526450D01*
X212603590Y-66686410D01*
X212763550Y-66817685D01*
X212763551Y-66817685D01*
X212763553Y-66817687D01*
X212946045Y-66915232D01*
X212946047Y-66915233D01*
X213088763Y-66958524D01*
X213144066Y-66975300D01*
X213350000Y-66995583D01*
X213555934Y-66975300D01*
X213690264Y-66934552D01*
X213753952Y-66915233D01*
X213753954Y-66915232D01*
X213841886Y-66868231D01*
X213936450Y-66817685D01*
X214096410Y-66686410D01*
X214227685Y-66526450D01*
X214325232Y-66343954D01*
X214326054Y-66341246D01*
X214354640Y-66247007D01*
X214385300Y-66145934D01*
X214405583Y-65940000D01*
X214834417Y-65940000D01*
X214854700Y-66145936D01*
X214854702Y-66145942D01*
X214914766Y-66343952D01*
X214914767Y-66343954D01*
X215012312Y-66526446D01*
X215012314Y-66526449D01*
X215012315Y-66526450D01*
X215143590Y-66686410D01*
X215303550Y-66817685D01*
X215303551Y-66817685D01*
X215303553Y-66817687D01*
X215486045Y-66915232D01*
X215486047Y-66915233D01*
X215628763Y-66958524D01*
X215684066Y-66975300D01*
X215890000Y-66995583D01*
X216095934Y-66975300D01*
X216230264Y-66934552D01*
X216293952Y-66915233D01*
X216293954Y-66915232D01*
X216381886Y-66868231D01*
X216476450Y-66817685D01*
X216636410Y-66686410D01*
X216767685Y-66526450D01*
X216865232Y-66343954D01*
X216866054Y-66341246D01*
X216894640Y-66247007D01*
X216925300Y-66145934D01*
X216945583Y-65940000D01*
X217374417Y-65940000D01*
X217394700Y-66145936D01*
X217394702Y-66145942D01*
X217454766Y-66343952D01*
X217454767Y-66343954D01*
X217552312Y-66526446D01*
X217552314Y-66526449D01*
X217552315Y-66526450D01*
X217683590Y-66686410D01*
X217843550Y-66817685D01*
X217843551Y-66817685D01*
X217843553Y-66817687D01*
X218026045Y-66915232D01*
X218026047Y-66915233D01*
X218168763Y-66958524D01*
X218224066Y-66975300D01*
X218430000Y-66995583D01*
X218635934Y-66975300D01*
X218770264Y-66934552D01*
X218833952Y-66915233D01*
X218833954Y-66915232D01*
X218921886Y-66868231D01*
X219016450Y-66817685D01*
X219176410Y-66686410D01*
X219307685Y-66526450D01*
X219405232Y-66343954D01*
X219406054Y-66341246D01*
X219434640Y-66247007D01*
X219465300Y-66145934D01*
X219485583Y-65940000D01*
X219914417Y-65940000D01*
X219934700Y-66145936D01*
X219934702Y-66145942D01*
X219994766Y-66343952D01*
X219994767Y-66343954D01*
X220092312Y-66526446D01*
X220092314Y-66526449D01*
X220092315Y-66526450D01*
X220223590Y-66686410D01*
X220383550Y-66817685D01*
X220383551Y-66817685D01*
X220383553Y-66817687D01*
X220566045Y-66915232D01*
X220566047Y-66915233D01*
X220708763Y-66958524D01*
X220764066Y-66975300D01*
X220970000Y-66995583D01*
X221175934Y-66975300D01*
X221310264Y-66934552D01*
X221373952Y-66915233D01*
X221373954Y-66915232D01*
X221461886Y-66868231D01*
X221556450Y-66817685D01*
X221716410Y-66686410D01*
X221847685Y-66526450D01*
X221945232Y-66343954D01*
X221946054Y-66341246D01*
X221974640Y-66247007D01*
X222005300Y-66145934D01*
X222025583Y-65940000D01*
X222454417Y-65940000D01*
X222474700Y-66145936D01*
X222474702Y-66145942D01*
X222534766Y-66343952D01*
X222534767Y-66343954D01*
X222632312Y-66526446D01*
X222632314Y-66526449D01*
X222632315Y-66526450D01*
X222763590Y-66686410D01*
X222923550Y-66817685D01*
X222923551Y-66817685D01*
X222923553Y-66817687D01*
X223106045Y-66915232D01*
X223106047Y-66915233D01*
X223248763Y-66958524D01*
X223304066Y-66975300D01*
X223510000Y-66995583D01*
X223715934Y-66975300D01*
X223850264Y-66934552D01*
X223913952Y-66915233D01*
X223913954Y-66915232D01*
X224001886Y-66868231D01*
X224096450Y-66817685D01*
X224256410Y-66686410D01*
X224387685Y-66526450D01*
X224485232Y-66343954D01*
X224486054Y-66341246D01*
X224514640Y-66247007D01*
X224545300Y-66145934D01*
X224565583Y-65940000D01*
X224994417Y-65940000D01*
X225014700Y-66145936D01*
X225014702Y-66145942D01*
X225074766Y-66343952D01*
X225074767Y-66343954D01*
X225172312Y-66526446D01*
X225172314Y-66526449D01*
X225172315Y-66526450D01*
X225303590Y-66686410D01*
X225463550Y-66817685D01*
X225463551Y-66817685D01*
X225463553Y-66817687D01*
X225646045Y-66915232D01*
X225646047Y-66915233D01*
X225788763Y-66958524D01*
X225844066Y-66975300D01*
X226050000Y-66995583D01*
X226255934Y-66975300D01*
X226390264Y-66934552D01*
X226453952Y-66915233D01*
X226453954Y-66915232D01*
X226541886Y-66868231D01*
X226636450Y-66817685D01*
X226796410Y-66686410D01*
X226927685Y-66526450D01*
X227025232Y-66343954D01*
X227026054Y-66341246D01*
X227054640Y-66247007D01*
X227085300Y-66145934D01*
X227105583Y-65940000D01*
X227534417Y-65940000D01*
X227554700Y-66145936D01*
X227554702Y-66145942D01*
X227614766Y-66343952D01*
X227614767Y-66343954D01*
X227712312Y-66526446D01*
X227712314Y-66526449D01*
X227712315Y-66526450D01*
X227843590Y-66686410D01*
X228003550Y-66817685D01*
X228003551Y-66817685D01*
X228003553Y-66817687D01*
X228186045Y-66915232D01*
X228186047Y-66915233D01*
X228328763Y-66958524D01*
X228384066Y-66975300D01*
X228590000Y-66995583D01*
X228795934Y-66975300D01*
X228930264Y-66934552D01*
X228993952Y-66915233D01*
X228993954Y-66915232D01*
X229081886Y-66868231D01*
X229176450Y-66817685D01*
X229336410Y-66686410D01*
X229467685Y-66526450D01*
X229565232Y-66343954D01*
X229566054Y-66341246D01*
X229594640Y-66247007D01*
X229625300Y-66145934D01*
X229645583Y-65940000D01*
X229632976Y-65811999D01*
X230031122Y-65811999D01*
X230031123Y-65812000D01*
X230646660Y-65812000D01*
X230630000Y-65874174D01*
X230630000Y-66005826D01*
X230646660Y-66068000D01*
X230031122Y-66068000D01*
X230038172Y-66144091D01*
X230038172Y-66144093D01*
X230094268Y-66341246D01*
X230185629Y-66524723D01*
X230185634Y-66524731D01*
X230309151Y-66688294D01*
X230309158Y-66688301D01*
X230460629Y-66826386D01*
X230460628Y-66826386D01*
X230634902Y-66934292D01*
X230826028Y-67008334D01*
X230826039Y-67008337D01*
X231001999Y-67041230D01*
X231002000Y-67041230D01*
X231002000Y-66423340D01*
X231064174Y-66440000D01*
X231195826Y-66440000D01*
X231258000Y-66423340D01*
X231258000Y-67041230D01*
X231433960Y-67008337D01*
X231433971Y-67008334D01*
X231625097Y-66934292D01*
X231799370Y-66826386D01*
X231950841Y-66688301D01*
X231950848Y-66688294D01*
X232074365Y-66524731D01*
X232074370Y-66524723D01*
X232165731Y-66341246D01*
X232221827Y-66144093D01*
X232221827Y-66144091D01*
X232228878Y-66068000D01*
X231613340Y-66068000D01*
X231630000Y-66005826D01*
X231630000Y-65940000D01*
X232614417Y-65940000D01*
X232634700Y-66145936D01*
X232634702Y-66145942D01*
X232694766Y-66343952D01*
X232694767Y-66343954D01*
X232792312Y-66526446D01*
X232792314Y-66526449D01*
X232792315Y-66526450D01*
X232923590Y-66686410D01*
X233083550Y-66817685D01*
X233083551Y-66817685D01*
X233083553Y-66817687D01*
X233266045Y-66915232D01*
X233266047Y-66915233D01*
X233408763Y-66958524D01*
X233464066Y-66975300D01*
X233670000Y-66995583D01*
X233875934Y-66975300D01*
X234010264Y-66934552D01*
X234073952Y-66915233D01*
X234073954Y-66915232D01*
X234161886Y-66868231D01*
X234256450Y-66817685D01*
X234416410Y-66686410D01*
X234547685Y-66526450D01*
X234645232Y-66343954D01*
X234646054Y-66341246D01*
X234674640Y-66247007D01*
X234705300Y-66145934D01*
X234725583Y-65940000D01*
X235154417Y-65940000D01*
X235174700Y-66145936D01*
X235174702Y-66145942D01*
X235234766Y-66343952D01*
X235234767Y-66343954D01*
X235332312Y-66526446D01*
X235332314Y-66526449D01*
X235332315Y-66526450D01*
X235463590Y-66686410D01*
X235623550Y-66817685D01*
X235623551Y-66817685D01*
X235623553Y-66817687D01*
X235806045Y-66915232D01*
X235806047Y-66915233D01*
X235948763Y-66958524D01*
X236004066Y-66975300D01*
X236210000Y-66995583D01*
X236415934Y-66975300D01*
X236550264Y-66934552D01*
X236613952Y-66915233D01*
X236613954Y-66915232D01*
X236701886Y-66868231D01*
X236796450Y-66817685D01*
X236956410Y-66686410D01*
X237087685Y-66526450D01*
X237185232Y-66343954D01*
X237186054Y-66341246D01*
X237214640Y-66247007D01*
X237245300Y-66145934D01*
X237265583Y-65940000D01*
X237694417Y-65940000D01*
X237714700Y-66145936D01*
X237714702Y-66145942D01*
X237774766Y-66343952D01*
X237774767Y-66343954D01*
X237872312Y-66526446D01*
X237872314Y-66526449D01*
X237872315Y-66526450D01*
X238003590Y-66686410D01*
X238163550Y-66817685D01*
X238163551Y-66817685D01*
X238163553Y-66817687D01*
X238346045Y-66915232D01*
X238346047Y-66915233D01*
X238488763Y-66958524D01*
X238544066Y-66975300D01*
X238750000Y-66995583D01*
X238955934Y-66975300D01*
X239090264Y-66934552D01*
X239153952Y-66915233D01*
X239153954Y-66915232D01*
X239241886Y-66868231D01*
X239336450Y-66817685D01*
X239496410Y-66686410D01*
X239627685Y-66526450D01*
X239725232Y-66343954D01*
X239726054Y-66341246D01*
X239754640Y-66247007D01*
X239785300Y-66145934D01*
X239805583Y-65940000D01*
X240234417Y-65940000D01*
X240254700Y-66145936D01*
X240254702Y-66145942D01*
X240314766Y-66343952D01*
X240314767Y-66343954D01*
X240412312Y-66526446D01*
X240412314Y-66526449D01*
X240412315Y-66526450D01*
X240543590Y-66686410D01*
X240703550Y-66817685D01*
X240703551Y-66817685D01*
X240703553Y-66817687D01*
X240886045Y-66915232D01*
X240886047Y-66915233D01*
X241028763Y-66958524D01*
X241084066Y-66975300D01*
X241290000Y-66995583D01*
X241495934Y-66975300D01*
X241630264Y-66934552D01*
X241693952Y-66915233D01*
X241693954Y-66915232D01*
X241781886Y-66868231D01*
X241876450Y-66817685D01*
X242036410Y-66686410D01*
X242167685Y-66526450D01*
X242265232Y-66343954D01*
X242266054Y-66341246D01*
X242294640Y-66247007D01*
X242325300Y-66145934D01*
X242345583Y-65940000D01*
X242774417Y-65940000D01*
X242794700Y-66145936D01*
X242794702Y-66145942D01*
X242854766Y-66343952D01*
X242854767Y-66343954D01*
X242952312Y-66526446D01*
X242952314Y-66526449D01*
X242952315Y-66526450D01*
X243083590Y-66686410D01*
X243243550Y-66817685D01*
X243243551Y-66817685D01*
X243243553Y-66817687D01*
X243426045Y-66915232D01*
X243426047Y-66915233D01*
X243568763Y-66958524D01*
X243624066Y-66975300D01*
X243830000Y-66995583D01*
X244035934Y-66975300D01*
X244170264Y-66934552D01*
X244233952Y-66915233D01*
X244233954Y-66915232D01*
X244321886Y-66868231D01*
X244416450Y-66817685D01*
X244576410Y-66686410D01*
X244707685Y-66526450D01*
X244805232Y-66343954D01*
X244806054Y-66341246D01*
X244834640Y-66247007D01*
X244865300Y-66145934D01*
X244885583Y-65940000D01*
X245314417Y-65940000D01*
X245334700Y-66145936D01*
X245334702Y-66145942D01*
X245394766Y-66343952D01*
X245394767Y-66343954D01*
X245492312Y-66526446D01*
X245492314Y-66526449D01*
X245492315Y-66526450D01*
X245623590Y-66686410D01*
X245783550Y-66817685D01*
X245783551Y-66817685D01*
X245783553Y-66817687D01*
X245966045Y-66915232D01*
X245966047Y-66915233D01*
X246108763Y-66958524D01*
X246164066Y-66975300D01*
X246370000Y-66995583D01*
X246575934Y-66975300D01*
X246710264Y-66934552D01*
X246773952Y-66915233D01*
X246773954Y-66915232D01*
X246861886Y-66868231D01*
X246956450Y-66817685D01*
X247116410Y-66686410D01*
X247247685Y-66526450D01*
X247345232Y-66343954D01*
X247346054Y-66341246D01*
X247374640Y-66247007D01*
X247405300Y-66145934D01*
X247425583Y-65940000D01*
X247412976Y-65811999D01*
X247811122Y-65811999D01*
X247811123Y-65812000D01*
X248426660Y-65812000D01*
X248410000Y-65874174D01*
X248410000Y-66005826D01*
X248426660Y-66068000D01*
X247811122Y-66068000D01*
X247818172Y-66144091D01*
X247818172Y-66144093D01*
X247874268Y-66341246D01*
X247965629Y-66524723D01*
X247965634Y-66524731D01*
X248089151Y-66688294D01*
X248089158Y-66688301D01*
X248240629Y-66826386D01*
X248240628Y-66826386D01*
X248414902Y-66934292D01*
X248606028Y-67008334D01*
X248606039Y-67008337D01*
X248781999Y-67041230D01*
X248782000Y-67041230D01*
X248782000Y-66423340D01*
X248844174Y-66440000D01*
X248975826Y-66440000D01*
X249038000Y-66423340D01*
X249038000Y-67041230D01*
X249213960Y-67008337D01*
X249213971Y-67008334D01*
X249405097Y-66934292D01*
X249579370Y-66826386D01*
X249730841Y-66688301D01*
X249730848Y-66688294D01*
X249854365Y-66524731D01*
X249854370Y-66524723D01*
X249945731Y-66341246D01*
X250001827Y-66144093D01*
X250001827Y-66144091D01*
X250008878Y-66068000D01*
X249393340Y-66068000D01*
X249410000Y-66005826D01*
X249410000Y-65874174D01*
X249393340Y-65812000D01*
X250008877Y-65812000D01*
X250008877Y-65811999D01*
X250001827Y-65735908D01*
X250001827Y-65735906D01*
X249945731Y-65538753D01*
X249854370Y-65355276D01*
X249854365Y-65355268D01*
X249730848Y-65191705D01*
X249730841Y-65191698D01*
X249579370Y-65053613D01*
X249579371Y-65053613D01*
X249405097Y-64945707D01*
X249213971Y-64871665D01*
X249213961Y-64871662D01*
X249038000Y-64838768D01*
X249038000Y-65456659D01*
X248975826Y-65440000D01*
X248844174Y-65440000D01*
X248782000Y-65456659D01*
X248782000Y-64838768D01*
X248606038Y-64871662D01*
X248606028Y-64871665D01*
X248414902Y-64945707D01*
X248240629Y-65053613D01*
X248089158Y-65191698D01*
X248089151Y-65191705D01*
X247965634Y-65355268D01*
X247965629Y-65355276D01*
X247874268Y-65538753D01*
X247818172Y-65735906D01*
X247818172Y-65735908D01*
X247811122Y-65811999D01*
X247412976Y-65811999D01*
X247405300Y-65734066D01*
X247374640Y-65632993D01*
X247345233Y-65536047D01*
X247345232Y-65536045D01*
X247247687Y-65353553D01*
X247247685Y-65353550D01*
X247116410Y-65193590D01*
X246956450Y-65062315D01*
X246956449Y-65062314D01*
X246956446Y-65062312D01*
X246773954Y-64964767D01*
X246773952Y-64964766D01*
X246575942Y-64904702D01*
X246575936Y-64904700D01*
X246370000Y-64884417D01*
X246164063Y-64904700D01*
X246164057Y-64904702D01*
X245966047Y-64964766D01*
X245966045Y-64964767D01*
X245783553Y-65062312D01*
X245623590Y-65193590D01*
X245492312Y-65353553D01*
X245394767Y-65536045D01*
X245394766Y-65536047D01*
X245334702Y-65734057D01*
X245334700Y-65734063D01*
X245314417Y-65940000D01*
X244885583Y-65940000D01*
X244865300Y-65734066D01*
X244834640Y-65632993D01*
X244805233Y-65536047D01*
X244805232Y-65536045D01*
X244707687Y-65353553D01*
X244707685Y-65353550D01*
X244576410Y-65193590D01*
X244416450Y-65062315D01*
X244416449Y-65062314D01*
X244416446Y-65062312D01*
X244233954Y-64964767D01*
X244233952Y-64964766D01*
X244035942Y-64904702D01*
X244035936Y-64904700D01*
X243830000Y-64884417D01*
X243624063Y-64904700D01*
X243624057Y-64904702D01*
X243426047Y-64964766D01*
X243426045Y-64964767D01*
X243243553Y-65062312D01*
X243083590Y-65193590D01*
X242952312Y-65353553D01*
X242854767Y-65536045D01*
X242854766Y-65536047D01*
X242794702Y-65734057D01*
X242794700Y-65734063D01*
X242774417Y-65940000D01*
X242345583Y-65940000D01*
X242325300Y-65734066D01*
X242294640Y-65632993D01*
X242265233Y-65536047D01*
X242265232Y-65536045D01*
X242167687Y-65353553D01*
X242167685Y-65353550D01*
X242036410Y-65193590D01*
X241876450Y-65062315D01*
X241876449Y-65062314D01*
X241876446Y-65062312D01*
X241693954Y-64964767D01*
X241693952Y-64964766D01*
X241495942Y-64904702D01*
X241495936Y-64904700D01*
X241290000Y-64884417D01*
X241084063Y-64904700D01*
X241084057Y-64904702D01*
X240886047Y-64964766D01*
X240886045Y-64964767D01*
X240703553Y-65062312D01*
X240543590Y-65193590D01*
X240412312Y-65353553D01*
X240314767Y-65536045D01*
X240314766Y-65536047D01*
X240254702Y-65734057D01*
X240254700Y-65734063D01*
X240234417Y-65940000D01*
X239805583Y-65940000D01*
X239785300Y-65734066D01*
X239754640Y-65632993D01*
X239725233Y-65536047D01*
X239725232Y-65536045D01*
X239627687Y-65353553D01*
X239627685Y-65353550D01*
X239496410Y-65193590D01*
X239336450Y-65062315D01*
X239336449Y-65062314D01*
X239336446Y-65062312D01*
X239153954Y-64964767D01*
X239153952Y-64964766D01*
X238955942Y-64904702D01*
X238955936Y-64904700D01*
X238750000Y-64884417D01*
X238544063Y-64904700D01*
X238544057Y-64904702D01*
X238346047Y-64964766D01*
X238346045Y-64964767D01*
X238163553Y-65062312D01*
X238003590Y-65193590D01*
X237872312Y-65353553D01*
X237774767Y-65536045D01*
X237774766Y-65536047D01*
X237714702Y-65734057D01*
X237714700Y-65734063D01*
X237694417Y-65940000D01*
X237265583Y-65940000D01*
X237245300Y-65734066D01*
X237214640Y-65632993D01*
X237185233Y-65536047D01*
X237185232Y-65536045D01*
X237087687Y-65353553D01*
X237087685Y-65353550D01*
X236956410Y-65193590D01*
X236796450Y-65062315D01*
X236796449Y-65062314D01*
X236796446Y-65062312D01*
X236613954Y-64964767D01*
X236613952Y-64964766D01*
X236415942Y-64904702D01*
X236415936Y-64904700D01*
X236210000Y-64884417D01*
X236004063Y-64904700D01*
X236004057Y-64904702D01*
X235806047Y-64964766D01*
X235806045Y-64964767D01*
X235623553Y-65062312D01*
X235463590Y-65193590D01*
X235332312Y-65353553D01*
X235234767Y-65536045D01*
X235234766Y-65536047D01*
X235174702Y-65734057D01*
X235174700Y-65734063D01*
X235154417Y-65940000D01*
X234725583Y-65940000D01*
X234705300Y-65734066D01*
X234674640Y-65632993D01*
X234645233Y-65536047D01*
X234645232Y-65536045D01*
X234547687Y-65353553D01*
X234547685Y-65353550D01*
X234416410Y-65193590D01*
X234256450Y-65062315D01*
X234256449Y-65062314D01*
X234256446Y-65062312D01*
X234073954Y-64964767D01*
X234073952Y-64964766D01*
X233875942Y-64904702D01*
X233875936Y-64904700D01*
X233670000Y-64884417D01*
X233464063Y-64904700D01*
X233464057Y-64904702D01*
X233266047Y-64964766D01*
X233266045Y-64964767D01*
X233083553Y-65062312D01*
X232923590Y-65193590D01*
X232792312Y-65353553D01*
X232694767Y-65536045D01*
X232694766Y-65536047D01*
X232634702Y-65734057D01*
X232634700Y-65734063D01*
X232614417Y-65940000D01*
X231630000Y-65940000D01*
X231630000Y-65874174D01*
X231613340Y-65812000D01*
X232228877Y-65812000D01*
X232228877Y-65811999D01*
X232221827Y-65735908D01*
X232221827Y-65735906D01*
X232165731Y-65538753D01*
X232074370Y-65355276D01*
X232074365Y-65355268D01*
X231950848Y-65191705D01*
X231950841Y-65191698D01*
X231799370Y-65053613D01*
X231799371Y-65053613D01*
X231625097Y-64945707D01*
X231433971Y-64871665D01*
X231433961Y-64871662D01*
X231258000Y-64838768D01*
X231258000Y-65456659D01*
X231195826Y-65440000D01*
X231064174Y-65440000D01*
X231002000Y-65456659D01*
X231002000Y-64838768D01*
X230826038Y-64871662D01*
X230826028Y-64871665D01*
X230634902Y-64945707D01*
X230460629Y-65053613D01*
X230309158Y-65191698D01*
X230309151Y-65191705D01*
X230185634Y-65355268D01*
X230185629Y-65355276D01*
X230094268Y-65538753D01*
X230038172Y-65735906D01*
X230038172Y-65735908D01*
X230031122Y-65811999D01*
X229632976Y-65811999D01*
X229625300Y-65734066D01*
X229594640Y-65632993D01*
X229565233Y-65536047D01*
X229565232Y-65536045D01*
X229467687Y-65353553D01*
X229467685Y-65353550D01*
X229336410Y-65193590D01*
X229176450Y-65062315D01*
X229176449Y-65062314D01*
X229176446Y-65062312D01*
X228993954Y-64964767D01*
X228993952Y-64964766D01*
X228795942Y-64904702D01*
X228795936Y-64904700D01*
X228590000Y-64884417D01*
X228384063Y-64904700D01*
X228384057Y-64904702D01*
X228186047Y-64964766D01*
X228186045Y-64964767D01*
X228003553Y-65062312D01*
X227843590Y-65193590D01*
X227712312Y-65353553D01*
X227614767Y-65536045D01*
X227614766Y-65536047D01*
X227554702Y-65734057D01*
X227554700Y-65734063D01*
X227534417Y-65940000D01*
X227105583Y-65940000D01*
X227085300Y-65734066D01*
X227054640Y-65632993D01*
X227025233Y-65536047D01*
X227025232Y-65536045D01*
X226927687Y-65353553D01*
X226927685Y-65353550D01*
X226796410Y-65193590D01*
X226636450Y-65062315D01*
X226636449Y-65062314D01*
X226636446Y-65062312D01*
X226453954Y-64964767D01*
X226453952Y-64964766D01*
X226255942Y-64904702D01*
X226255936Y-64904700D01*
X226050000Y-64884417D01*
X225844063Y-64904700D01*
X225844057Y-64904702D01*
X225646047Y-64964766D01*
X225646045Y-64964767D01*
X225463553Y-65062312D01*
X225303590Y-65193590D01*
X225172312Y-65353553D01*
X225074767Y-65536045D01*
X225074766Y-65536047D01*
X225014702Y-65734057D01*
X225014700Y-65734063D01*
X224994417Y-65940000D01*
X224565583Y-65940000D01*
X224545300Y-65734066D01*
X224514640Y-65632993D01*
X224485233Y-65536047D01*
X224485232Y-65536045D01*
X224387687Y-65353553D01*
X224387685Y-65353550D01*
X224256410Y-65193590D01*
X224096450Y-65062315D01*
X224096449Y-65062314D01*
X224096446Y-65062312D01*
X223913954Y-64964767D01*
X223913952Y-64964766D01*
X223715942Y-64904702D01*
X223715936Y-64904700D01*
X223510000Y-64884417D01*
X223304063Y-64904700D01*
X223304057Y-64904702D01*
X223106047Y-64964766D01*
X223106045Y-64964767D01*
X222923553Y-65062312D01*
X222763590Y-65193590D01*
X222632312Y-65353553D01*
X222534767Y-65536045D01*
X222534766Y-65536047D01*
X222474702Y-65734057D01*
X222474700Y-65734063D01*
X222454417Y-65940000D01*
X222025583Y-65940000D01*
X222005300Y-65734066D01*
X221974640Y-65632993D01*
X221945233Y-65536047D01*
X221945232Y-65536045D01*
X221847687Y-65353553D01*
X221847685Y-65353550D01*
X221716410Y-65193590D01*
X221556450Y-65062315D01*
X221556449Y-65062314D01*
X221556446Y-65062312D01*
X221373954Y-64964767D01*
X221373952Y-64964766D01*
X221175942Y-64904702D01*
X221175936Y-64904700D01*
X220970000Y-64884417D01*
X220764063Y-64904700D01*
X220764057Y-64904702D01*
X220566047Y-64964766D01*
X220566045Y-64964767D01*
X220383553Y-65062312D01*
X220223590Y-65193590D01*
X220092312Y-65353553D01*
X219994767Y-65536045D01*
X219994766Y-65536047D01*
X219934702Y-65734057D01*
X219934700Y-65734063D01*
X219914417Y-65940000D01*
X219485583Y-65940000D01*
X219465300Y-65734066D01*
X219434640Y-65632993D01*
X219405233Y-65536047D01*
X219405232Y-65536045D01*
X219307687Y-65353553D01*
X219307685Y-65353550D01*
X219176410Y-65193590D01*
X219016450Y-65062315D01*
X219016449Y-65062314D01*
X219016446Y-65062312D01*
X218833954Y-64964767D01*
X218833952Y-64964766D01*
X218635942Y-64904702D01*
X218635936Y-64904700D01*
X218430000Y-64884417D01*
X218224063Y-64904700D01*
X218224057Y-64904702D01*
X218026047Y-64964766D01*
X218026045Y-64964767D01*
X217843553Y-65062312D01*
X217683590Y-65193590D01*
X217552312Y-65353553D01*
X217454767Y-65536045D01*
X217454766Y-65536047D01*
X217394702Y-65734057D01*
X217394700Y-65734063D01*
X217374417Y-65940000D01*
X216945583Y-65940000D01*
X216925300Y-65734066D01*
X216894640Y-65632993D01*
X216865233Y-65536047D01*
X216865232Y-65536045D01*
X216767687Y-65353553D01*
X216767685Y-65353550D01*
X216636410Y-65193590D01*
X216476450Y-65062315D01*
X216476449Y-65062314D01*
X216476446Y-65062312D01*
X216293954Y-64964767D01*
X216293952Y-64964766D01*
X216095942Y-64904702D01*
X216095936Y-64904700D01*
X215890000Y-64884417D01*
X215684063Y-64904700D01*
X215684057Y-64904702D01*
X215486047Y-64964766D01*
X215486045Y-64964767D01*
X215303553Y-65062312D01*
X215143590Y-65193590D01*
X215012312Y-65353553D01*
X214914767Y-65536045D01*
X214914766Y-65536047D01*
X214854702Y-65734057D01*
X214854700Y-65734063D01*
X214834417Y-65940000D01*
X214405583Y-65940000D01*
X214385300Y-65734066D01*
X214354640Y-65632993D01*
X214325233Y-65536047D01*
X214325232Y-65536045D01*
X214227687Y-65353553D01*
X214227685Y-65353550D01*
X214096410Y-65193590D01*
X213936450Y-65062315D01*
X213936449Y-65062314D01*
X213936446Y-65062312D01*
X213753954Y-64964767D01*
X213753952Y-64964766D01*
X213555942Y-64904702D01*
X213555936Y-64904700D01*
X213350000Y-64884417D01*
X213144063Y-64904700D01*
X213144057Y-64904702D01*
X212946047Y-64964766D01*
X212946045Y-64964767D01*
X212763553Y-65062312D01*
X212603590Y-65193590D01*
X212472312Y-65353553D01*
X212374767Y-65536045D01*
X212374766Y-65536047D01*
X212314702Y-65734057D01*
X212314700Y-65734063D01*
X212294417Y-65940000D01*
X211310000Y-65940000D01*
X211310000Y-65874174D01*
X211293340Y-65812000D01*
X211908877Y-65812000D01*
X211908877Y-65811999D01*
X211901827Y-65735908D01*
X211901827Y-65735906D01*
X211845731Y-65538753D01*
X211754370Y-65355276D01*
X211754365Y-65355268D01*
X211630848Y-65191705D01*
X211630841Y-65191698D01*
X211479370Y-65053613D01*
X211479371Y-65053613D01*
X211305097Y-64945707D01*
X211113971Y-64871665D01*
X211113961Y-64871662D01*
X210938000Y-64838768D01*
X210938000Y-65456659D01*
X210875826Y-65440000D01*
X210744174Y-65440000D01*
X210682000Y-65456659D01*
X210682000Y-64838768D01*
X210506038Y-64871662D01*
X210506028Y-64871665D01*
X210314902Y-64945707D01*
X210140629Y-65053613D01*
X209989158Y-65191698D01*
X209989151Y-65191705D01*
X209865634Y-65355268D01*
X209865629Y-65355276D01*
X209774268Y-65538753D01*
X209718172Y-65735906D01*
X209718172Y-65735908D01*
X209711122Y-65811999D01*
X209312976Y-65811999D01*
X209305300Y-65734066D01*
X209274640Y-65632993D01*
X209245233Y-65536047D01*
X209245232Y-65536045D01*
X209147687Y-65353553D01*
X209147685Y-65353550D01*
X209016410Y-65193590D01*
X208856450Y-65062315D01*
X208856449Y-65062314D01*
X208856446Y-65062312D01*
X208673954Y-64964767D01*
X208673952Y-64964766D01*
X208475942Y-64904702D01*
X208475936Y-64904700D01*
X208270000Y-64884417D01*
X208064063Y-64904700D01*
X208064057Y-64904702D01*
X207866047Y-64964766D01*
X207866045Y-64964767D01*
X207683553Y-65062312D01*
X207523590Y-65193590D01*
X207392312Y-65353553D01*
X207294767Y-65536045D01*
X207294766Y-65536047D01*
X207234702Y-65734057D01*
X207234700Y-65734063D01*
X207214417Y-65940000D01*
X206785583Y-65940000D01*
X206765300Y-65734066D01*
X206734640Y-65632993D01*
X206705233Y-65536047D01*
X206705232Y-65536045D01*
X206607687Y-65353553D01*
X206607685Y-65353550D01*
X206476410Y-65193590D01*
X206316450Y-65062315D01*
X206316449Y-65062314D01*
X206316446Y-65062312D01*
X206133954Y-64964767D01*
X206133952Y-64964766D01*
X205935942Y-64904702D01*
X205935936Y-64904700D01*
X205730000Y-64884417D01*
X205524063Y-64904700D01*
X205524057Y-64904702D01*
X205326047Y-64964766D01*
X205326045Y-64964767D01*
X205143553Y-65062312D01*
X204983590Y-65193590D01*
X204852312Y-65353553D01*
X204754767Y-65536045D01*
X204754766Y-65536047D01*
X204694702Y-65734057D01*
X204694700Y-65734063D01*
X204674417Y-65940000D01*
X204245583Y-65940000D01*
X204225300Y-65734066D01*
X204194640Y-65632993D01*
X204165233Y-65536047D01*
X204165232Y-65536045D01*
X204067687Y-65353553D01*
X204067685Y-65353550D01*
X203936410Y-65193590D01*
X203776450Y-65062315D01*
X203776449Y-65062314D01*
X203776446Y-65062312D01*
X203593954Y-64964767D01*
X203593952Y-64964766D01*
X203395942Y-64904702D01*
X203395936Y-64904700D01*
X203190000Y-64884417D01*
X202984063Y-64904700D01*
X202984057Y-64904702D01*
X202786047Y-64964766D01*
X202786045Y-64964767D01*
X202603553Y-65062312D01*
X202443590Y-65193590D01*
X202312312Y-65353553D01*
X202214767Y-65536045D01*
X202214766Y-65536047D01*
X202154702Y-65734057D01*
X202154700Y-65734063D01*
X202134417Y-65940000D01*
X201700500Y-65940000D01*
X201700500Y-65070252D01*
X201688867Y-65011769D01*
X201644552Y-64945448D01*
X201578231Y-64901133D01*
X201519748Y-64889500D01*
X199780252Y-64889500D01*
X199736389Y-64898224D01*
X199721768Y-64901133D01*
X199655449Y-64945447D01*
X199655447Y-64945449D01*
X199611133Y-65011768D01*
X199611133Y-65011769D01*
X199599500Y-65070252D01*
X192300000Y-65070252D01*
X192300000Y-64160455D01*
X192300006Y-64159572D01*
X192300164Y-64148294D01*
X192302316Y-63994737D01*
X192302705Y-63988593D01*
X192339662Y-63660585D01*
X192340843Y-63653639D01*
X192398734Y-63400000D01*
X199594417Y-63400000D01*
X199614700Y-63605936D01*
X199614702Y-63605942D01*
X199674766Y-63803952D01*
X199674767Y-63803954D01*
X199772312Y-63986446D01*
X199772314Y-63986449D01*
X199772315Y-63986450D01*
X199903590Y-64146410D01*
X200063550Y-64277685D01*
X200063551Y-64277685D01*
X200063553Y-64277687D01*
X200246045Y-64375232D01*
X200246047Y-64375233D01*
X200388763Y-64418524D01*
X200444066Y-64435300D01*
X200650000Y-64455583D01*
X200855934Y-64435300D01*
X200991121Y-64394292D01*
X201053952Y-64375233D01*
X201053954Y-64375232D01*
X201236450Y-64277685D01*
X201396410Y-64146410D01*
X201527685Y-63986450D01*
X201625232Y-63803954D01*
X201626054Y-63801246D01*
X201670829Y-63653639D01*
X201685300Y-63605934D01*
X201705583Y-63400000D01*
X202134417Y-63400000D01*
X202154700Y-63605936D01*
X202154702Y-63605942D01*
X202214766Y-63803952D01*
X202214767Y-63803954D01*
X202312312Y-63986446D01*
X202312314Y-63986449D01*
X202312315Y-63986450D01*
X202443590Y-64146410D01*
X202603550Y-64277685D01*
X202603551Y-64277685D01*
X202603553Y-64277687D01*
X202786045Y-64375232D01*
X202786047Y-64375233D01*
X202928763Y-64418524D01*
X202984066Y-64435300D01*
X203190000Y-64455583D01*
X203395934Y-64435300D01*
X203531121Y-64394292D01*
X203593952Y-64375233D01*
X203593954Y-64375232D01*
X203776450Y-64277685D01*
X203936410Y-64146410D01*
X204067685Y-63986450D01*
X204165232Y-63803954D01*
X204166054Y-63801246D01*
X204210829Y-63653639D01*
X204225300Y-63605934D01*
X204245583Y-63400000D01*
X204232976Y-63271999D01*
X204631122Y-63271999D01*
X204631123Y-63272000D01*
X205246660Y-63272000D01*
X205230000Y-63334174D01*
X205230000Y-63465826D01*
X205246660Y-63528000D01*
X204631122Y-63528000D01*
X204638172Y-63604091D01*
X204638172Y-63604093D01*
X204694268Y-63801246D01*
X204785629Y-63984723D01*
X204785634Y-63984731D01*
X204909151Y-64148294D01*
X204909158Y-64148301D01*
X205060629Y-64286386D01*
X205060628Y-64286386D01*
X205234902Y-64394292D01*
X205426028Y-64468334D01*
X205426039Y-64468337D01*
X205601999Y-64501230D01*
X205602000Y-64501230D01*
X205602000Y-63883340D01*
X205664174Y-63900000D01*
X205795826Y-63900000D01*
X205858000Y-63883340D01*
X205858000Y-64501230D01*
X206033960Y-64468337D01*
X206033971Y-64468334D01*
X206225097Y-64394292D01*
X206399370Y-64286386D01*
X206550841Y-64148301D01*
X206550848Y-64148294D01*
X206674365Y-63984731D01*
X206674370Y-63984723D01*
X206765731Y-63801246D01*
X206821827Y-63604093D01*
X206821827Y-63604091D01*
X206828878Y-63528000D01*
X206213340Y-63528000D01*
X206230000Y-63465826D01*
X206230000Y-63400000D01*
X207214417Y-63400000D01*
X207234700Y-63605936D01*
X207234702Y-63605942D01*
X207294766Y-63803952D01*
X207294767Y-63803954D01*
X207392312Y-63986446D01*
X207392314Y-63986449D01*
X207392315Y-63986450D01*
X207523590Y-64146410D01*
X207683550Y-64277685D01*
X207683551Y-64277685D01*
X207683553Y-64277687D01*
X207866045Y-64375232D01*
X207866047Y-64375233D01*
X208008763Y-64418524D01*
X208064066Y-64435300D01*
X208270000Y-64455583D01*
X208475934Y-64435300D01*
X208611121Y-64394292D01*
X208673952Y-64375233D01*
X208673954Y-64375232D01*
X208856450Y-64277685D01*
X209016410Y-64146410D01*
X209147685Y-63986450D01*
X209245232Y-63803954D01*
X209246054Y-63801246D01*
X209290829Y-63653639D01*
X209305300Y-63605934D01*
X209325583Y-63400000D01*
X209754417Y-63400000D01*
X209774700Y-63605936D01*
X209774702Y-63605942D01*
X209834766Y-63803952D01*
X209834767Y-63803954D01*
X209932312Y-63986446D01*
X209932314Y-63986449D01*
X209932315Y-63986450D01*
X210063590Y-64146410D01*
X210223550Y-64277685D01*
X210223551Y-64277685D01*
X210223553Y-64277687D01*
X210406045Y-64375232D01*
X210406047Y-64375233D01*
X210548763Y-64418524D01*
X210604066Y-64435300D01*
X210810000Y-64455583D01*
X211015934Y-64435300D01*
X211151121Y-64394292D01*
X211213952Y-64375233D01*
X211213954Y-64375232D01*
X211396450Y-64277685D01*
X211556410Y-64146410D01*
X211687685Y-63986450D01*
X211785232Y-63803954D01*
X211786054Y-63801246D01*
X211830829Y-63653639D01*
X211845300Y-63605934D01*
X211865583Y-63400000D01*
X212294417Y-63400000D01*
X212314700Y-63605936D01*
X212314702Y-63605942D01*
X212374766Y-63803952D01*
X212374767Y-63803954D01*
X212472312Y-63986446D01*
X212472314Y-63986449D01*
X212472315Y-63986450D01*
X212603590Y-64146410D01*
X212763550Y-64277685D01*
X212763551Y-64277685D01*
X212763553Y-64277687D01*
X212946045Y-64375232D01*
X212946047Y-64375233D01*
X213088763Y-64418524D01*
X213144066Y-64435300D01*
X213350000Y-64455583D01*
X213555934Y-64435300D01*
X213691121Y-64394292D01*
X213753952Y-64375233D01*
X213753954Y-64375232D01*
X213936450Y-64277685D01*
X214096410Y-64146410D01*
X214227685Y-63986450D01*
X214325232Y-63803954D01*
X214326054Y-63801246D01*
X214370829Y-63653639D01*
X214385300Y-63605934D01*
X214405583Y-63400000D01*
X214392976Y-63271999D01*
X214791122Y-63271999D01*
X214791123Y-63272000D01*
X215406660Y-63272000D01*
X215390000Y-63334174D01*
X215390000Y-63465826D01*
X215406660Y-63528000D01*
X214791122Y-63528000D01*
X214798172Y-63604091D01*
X214798172Y-63604093D01*
X214854268Y-63801246D01*
X214945629Y-63984723D01*
X214945634Y-63984731D01*
X215069151Y-64148294D01*
X215069158Y-64148301D01*
X215220629Y-64286386D01*
X215220628Y-64286386D01*
X215394902Y-64394292D01*
X215586028Y-64468334D01*
X215586039Y-64468337D01*
X215761999Y-64501230D01*
X215762000Y-64501230D01*
X215762000Y-63883340D01*
X215824174Y-63900000D01*
X215955826Y-63900000D01*
X216018000Y-63883340D01*
X216018000Y-64501230D01*
X216193960Y-64468337D01*
X216193971Y-64468334D01*
X216385097Y-64394292D01*
X216559370Y-64286386D01*
X216710841Y-64148301D01*
X216710848Y-64148294D01*
X216834365Y-63984731D01*
X216834370Y-63984723D01*
X216925731Y-63801246D01*
X216981827Y-63604093D01*
X216981827Y-63604091D01*
X216988878Y-63528000D01*
X216373340Y-63528000D01*
X216390000Y-63465826D01*
X216390000Y-63400000D01*
X217374417Y-63400000D01*
X217394700Y-63605936D01*
X217394702Y-63605942D01*
X217454766Y-63803952D01*
X217454767Y-63803954D01*
X217552312Y-63986446D01*
X217552314Y-63986449D01*
X217552315Y-63986450D01*
X217683590Y-64146410D01*
X217843550Y-64277685D01*
X217843551Y-64277685D01*
X217843553Y-64277687D01*
X218026045Y-64375232D01*
X218026047Y-64375233D01*
X218168763Y-64418524D01*
X218224066Y-64435300D01*
X218430000Y-64455583D01*
X218635934Y-64435300D01*
X218771121Y-64394292D01*
X218833952Y-64375233D01*
X218833954Y-64375232D01*
X219016450Y-64277685D01*
X219176410Y-64146410D01*
X219307685Y-63986450D01*
X219405232Y-63803954D01*
X219406054Y-63801246D01*
X219450829Y-63653639D01*
X219465300Y-63605934D01*
X219485583Y-63400000D01*
X219914417Y-63400000D01*
X219934700Y-63605936D01*
X219934702Y-63605942D01*
X219994766Y-63803952D01*
X219994767Y-63803954D01*
X220092312Y-63986446D01*
X220092314Y-63986449D01*
X220092315Y-63986450D01*
X220223590Y-64146410D01*
X220383550Y-64277685D01*
X220383551Y-64277685D01*
X220383553Y-64277687D01*
X220566045Y-64375232D01*
X220566047Y-64375233D01*
X220708763Y-64418524D01*
X220764066Y-64435300D01*
X220970000Y-64455583D01*
X221175934Y-64435300D01*
X221311121Y-64394292D01*
X221373952Y-64375233D01*
X221373954Y-64375232D01*
X221556450Y-64277685D01*
X221716410Y-64146410D01*
X221847685Y-63986450D01*
X221945232Y-63803954D01*
X221946054Y-63801246D01*
X221990829Y-63653639D01*
X222005300Y-63605934D01*
X222025583Y-63400000D01*
X222012976Y-63271999D01*
X222411122Y-63271999D01*
X222411123Y-63272000D01*
X223026660Y-63272000D01*
X223010000Y-63334174D01*
X223010000Y-63465826D01*
X223026660Y-63528000D01*
X222411122Y-63528000D01*
X222418172Y-63604091D01*
X222418172Y-63604093D01*
X222474268Y-63801246D01*
X222565629Y-63984723D01*
X222565634Y-63984731D01*
X222689151Y-64148294D01*
X222689158Y-64148301D01*
X222840629Y-64286386D01*
X222840628Y-64286386D01*
X223014902Y-64394292D01*
X223206028Y-64468334D01*
X223206039Y-64468337D01*
X223381999Y-64501230D01*
X223382000Y-64501230D01*
X223382000Y-63883340D01*
X223444174Y-63900000D01*
X223575826Y-63900000D01*
X223638000Y-63883340D01*
X223638000Y-64501230D01*
X223813960Y-64468337D01*
X223813971Y-64468334D01*
X224005097Y-64394292D01*
X224179370Y-64286386D01*
X224330841Y-64148301D01*
X224330848Y-64148294D01*
X224454365Y-63984731D01*
X224454370Y-63984723D01*
X224545731Y-63801246D01*
X224601827Y-63604093D01*
X224601827Y-63604091D01*
X224608878Y-63528000D01*
X223993340Y-63528000D01*
X224010000Y-63465826D01*
X224010000Y-63400000D01*
X224994417Y-63400000D01*
X225014700Y-63605936D01*
X225014702Y-63605942D01*
X225074766Y-63803952D01*
X225074767Y-63803954D01*
X225172312Y-63986446D01*
X225172314Y-63986449D01*
X225172315Y-63986450D01*
X225303590Y-64146410D01*
X225463550Y-64277685D01*
X225463551Y-64277685D01*
X225463553Y-64277687D01*
X225646045Y-64375232D01*
X225646047Y-64375233D01*
X225788763Y-64418524D01*
X225844066Y-64435300D01*
X226050000Y-64455583D01*
X226255934Y-64435300D01*
X226391121Y-64394292D01*
X226453952Y-64375233D01*
X226453954Y-64375232D01*
X226636450Y-64277685D01*
X226796410Y-64146410D01*
X226927685Y-63986450D01*
X227025232Y-63803954D01*
X227026054Y-63801246D01*
X227070829Y-63653639D01*
X227085300Y-63605934D01*
X227105583Y-63400000D01*
X227534417Y-63400000D01*
X227554700Y-63605936D01*
X227554702Y-63605942D01*
X227614766Y-63803952D01*
X227614767Y-63803954D01*
X227712312Y-63986446D01*
X227712314Y-63986449D01*
X227712315Y-63986450D01*
X227843590Y-64146410D01*
X228003550Y-64277685D01*
X228003551Y-64277685D01*
X228003553Y-64277687D01*
X228186045Y-64375232D01*
X228186047Y-64375233D01*
X228328763Y-64418524D01*
X228384066Y-64435300D01*
X228590000Y-64455583D01*
X228795934Y-64435300D01*
X228931121Y-64394292D01*
X228993952Y-64375233D01*
X228993954Y-64375232D01*
X229176450Y-64277685D01*
X229336410Y-64146410D01*
X229467685Y-63986450D01*
X229565232Y-63803954D01*
X229566054Y-63801246D01*
X229610829Y-63653639D01*
X229625300Y-63605934D01*
X229645583Y-63400000D01*
X230074417Y-63400000D01*
X230094700Y-63605936D01*
X230094702Y-63605942D01*
X230154766Y-63803952D01*
X230154767Y-63803954D01*
X230252312Y-63986446D01*
X230252314Y-63986449D01*
X230252315Y-63986450D01*
X230383590Y-64146410D01*
X230543550Y-64277685D01*
X230543551Y-64277685D01*
X230543553Y-64277687D01*
X230726045Y-64375232D01*
X230726047Y-64375233D01*
X230868763Y-64418524D01*
X230924066Y-64435300D01*
X231130000Y-64455583D01*
X231335934Y-64435300D01*
X231471121Y-64394292D01*
X231533952Y-64375233D01*
X231533954Y-64375232D01*
X231716450Y-64277685D01*
X231876410Y-64146410D01*
X232007685Y-63986450D01*
X232105232Y-63803954D01*
X232106054Y-63801246D01*
X232150829Y-63653639D01*
X232165300Y-63605934D01*
X232185583Y-63400000D01*
X232614417Y-63400000D01*
X232634700Y-63605936D01*
X232634702Y-63605942D01*
X232694766Y-63803952D01*
X232694767Y-63803954D01*
X232792312Y-63986446D01*
X232792314Y-63986449D01*
X232792315Y-63986450D01*
X232923590Y-64146410D01*
X233083550Y-64277685D01*
X233083551Y-64277685D01*
X233083553Y-64277687D01*
X233266045Y-64375232D01*
X233266047Y-64375233D01*
X233408763Y-64418524D01*
X233464066Y-64435300D01*
X233670000Y-64455583D01*
X233875934Y-64435300D01*
X234011121Y-64394292D01*
X234073952Y-64375233D01*
X234073954Y-64375232D01*
X234256450Y-64277685D01*
X234416410Y-64146410D01*
X234547685Y-63986450D01*
X234645232Y-63803954D01*
X234646054Y-63801246D01*
X234690829Y-63653639D01*
X234705300Y-63605934D01*
X234725583Y-63400000D01*
X234712976Y-63271999D01*
X235111122Y-63271999D01*
X235111123Y-63272000D01*
X235726660Y-63272000D01*
X235710000Y-63334174D01*
X235710000Y-63465826D01*
X235726660Y-63528000D01*
X235111122Y-63528000D01*
X235118172Y-63604091D01*
X235118172Y-63604093D01*
X235174268Y-63801246D01*
X235265629Y-63984723D01*
X235265634Y-63984731D01*
X235389151Y-64148294D01*
X235389158Y-64148301D01*
X235540629Y-64286386D01*
X235540628Y-64286386D01*
X235714902Y-64394292D01*
X235906028Y-64468334D01*
X235906039Y-64468337D01*
X236081999Y-64501230D01*
X236082000Y-64501230D01*
X236082000Y-63883340D01*
X236144174Y-63900000D01*
X236275826Y-63900000D01*
X236338000Y-63883340D01*
X236338000Y-64501230D01*
X236513960Y-64468337D01*
X236513971Y-64468334D01*
X236705097Y-64394292D01*
X236879370Y-64286386D01*
X237030841Y-64148301D01*
X237030848Y-64148294D01*
X237154365Y-63984731D01*
X237154370Y-63984723D01*
X237245731Y-63801246D01*
X237301827Y-63604093D01*
X237301827Y-63604091D01*
X237308878Y-63528000D01*
X236693340Y-63528000D01*
X236710000Y-63465826D01*
X236710000Y-63400000D01*
X237694417Y-63400000D01*
X237714700Y-63605936D01*
X237714702Y-63605942D01*
X237774766Y-63803952D01*
X237774767Y-63803954D01*
X237872312Y-63986446D01*
X237872314Y-63986449D01*
X237872315Y-63986450D01*
X238003590Y-64146410D01*
X238163550Y-64277685D01*
X238163551Y-64277685D01*
X238163553Y-64277687D01*
X238346045Y-64375232D01*
X238346047Y-64375233D01*
X238488763Y-64418524D01*
X238544066Y-64435300D01*
X238750000Y-64455583D01*
X238955934Y-64435300D01*
X239091121Y-64394292D01*
X239153952Y-64375233D01*
X239153954Y-64375232D01*
X239336450Y-64277685D01*
X239496410Y-64146410D01*
X239627685Y-63986450D01*
X239725232Y-63803954D01*
X239726054Y-63801246D01*
X239770829Y-63653639D01*
X239785300Y-63605934D01*
X239805583Y-63400000D01*
X239792976Y-63271999D01*
X240191122Y-63271999D01*
X240191123Y-63272000D01*
X240806660Y-63272000D01*
X240790000Y-63334174D01*
X240790000Y-63465826D01*
X240806660Y-63528000D01*
X240191122Y-63528000D01*
X240198172Y-63604091D01*
X240198172Y-63604093D01*
X240254268Y-63801246D01*
X240345629Y-63984723D01*
X240345634Y-63984731D01*
X240469151Y-64148294D01*
X240469158Y-64148301D01*
X240620629Y-64286386D01*
X240620628Y-64286386D01*
X240794902Y-64394292D01*
X240986028Y-64468334D01*
X240986039Y-64468337D01*
X241161999Y-64501230D01*
X241162000Y-64501230D01*
X241162000Y-63883340D01*
X241224174Y-63900000D01*
X241355826Y-63900000D01*
X241418000Y-63883340D01*
X241418000Y-64501230D01*
X241593960Y-64468337D01*
X241593971Y-64468334D01*
X241785097Y-64394292D01*
X241959370Y-64286386D01*
X242110841Y-64148301D01*
X242110848Y-64148294D01*
X242234365Y-63984731D01*
X242234370Y-63984723D01*
X242325731Y-63801246D01*
X242381827Y-63604093D01*
X242381827Y-63604091D01*
X242388878Y-63528000D01*
X241773340Y-63528000D01*
X241790000Y-63465826D01*
X241790000Y-63400000D01*
X242774417Y-63400000D01*
X242794700Y-63605936D01*
X242794702Y-63605942D01*
X242854766Y-63803952D01*
X242854767Y-63803954D01*
X242952312Y-63986446D01*
X242952314Y-63986449D01*
X242952315Y-63986450D01*
X243083590Y-64146410D01*
X243243550Y-64277685D01*
X243243551Y-64277685D01*
X243243553Y-64277687D01*
X243426045Y-64375232D01*
X243426047Y-64375233D01*
X243568763Y-64418524D01*
X243624066Y-64435300D01*
X243830000Y-64455583D01*
X244035934Y-64435300D01*
X244171121Y-64394292D01*
X244233952Y-64375233D01*
X244233954Y-64375232D01*
X244416450Y-64277685D01*
X244576410Y-64146410D01*
X244707685Y-63986450D01*
X244805232Y-63803954D01*
X244806054Y-63801246D01*
X244850829Y-63653639D01*
X244865300Y-63605934D01*
X244885583Y-63400000D01*
X245314417Y-63400000D01*
X245334700Y-63605936D01*
X245334702Y-63605942D01*
X245394766Y-63803952D01*
X245394767Y-63803954D01*
X245492312Y-63986446D01*
X245492314Y-63986449D01*
X245492315Y-63986450D01*
X245623590Y-64146410D01*
X245783550Y-64277685D01*
X245783551Y-64277685D01*
X245783553Y-64277687D01*
X245966045Y-64375232D01*
X245966047Y-64375233D01*
X246108763Y-64418524D01*
X246164066Y-64435300D01*
X246370000Y-64455583D01*
X246575934Y-64435300D01*
X246711121Y-64394292D01*
X246773952Y-64375233D01*
X246773954Y-64375232D01*
X246956450Y-64277685D01*
X247116410Y-64146410D01*
X247247685Y-63986450D01*
X247345232Y-63803954D01*
X247346054Y-63801246D01*
X247390829Y-63653639D01*
X247405300Y-63605934D01*
X247425583Y-63400000D01*
X247854417Y-63400000D01*
X247874700Y-63605936D01*
X247874702Y-63605942D01*
X247934766Y-63803952D01*
X247934767Y-63803954D01*
X248032312Y-63986446D01*
X248032314Y-63986449D01*
X248032315Y-63986450D01*
X248163590Y-64146410D01*
X248323550Y-64277685D01*
X248323551Y-64277685D01*
X248323553Y-64277687D01*
X248506045Y-64375232D01*
X248506047Y-64375233D01*
X248648763Y-64418524D01*
X248704066Y-64435300D01*
X248910000Y-64455583D01*
X249115934Y-64435300D01*
X249251121Y-64394292D01*
X249313952Y-64375233D01*
X249313954Y-64375232D01*
X249496450Y-64277685D01*
X249656410Y-64146410D01*
X249787685Y-63986450D01*
X249885232Y-63803954D01*
X249886054Y-63801246D01*
X249930829Y-63653639D01*
X249945300Y-63605934D01*
X249965583Y-63400000D01*
X249945300Y-63194066D01*
X249890794Y-63014381D01*
X249885233Y-62996047D01*
X249885232Y-62996045D01*
X249787687Y-62813553D01*
X249787685Y-62813550D01*
X249656410Y-62653590D01*
X249496450Y-62522315D01*
X249496449Y-62522314D01*
X249496446Y-62522312D01*
X249313954Y-62424767D01*
X249313952Y-62424766D01*
X249115942Y-62364702D01*
X249115936Y-62364700D01*
X248910000Y-62344417D01*
X248704063Y-62364700D01*
X248704057Y-62364702D01*
X248506047Y-62424766D01*
X248506045Y-62424767D01*
X248323553Y-62522312D01*
X248163590Y-62653590D01*
X248032312Y-62813553D01*
X247934767Y-62996045D01*
X247934766Y-62996047D01*
X247874702Y-63194057D01*
X247874700Y-63194063D01*
X247854417Y-63400000D01*
X247425583Y-63400000D01*
X247405300Y-63194066D01*
X247350794Y-63014381D01*
X247345233Y-62996047D01*
X247345232Y-62996045D01*
X247247687Y-62813553D01*
X247247685Y-62813550D01*
X247116410Y-62653590D01*
X246956450Y-62522315D01*
X246956449Y-62522314D01*
X246956446Y-62522312D01*
X246773954Y-62424767D01*
X246773952Y-62424766D01*
X246575942Y-62364702D01*
X246575936Y-62364700D01*
X246370000Y-62344417D01*
X246164063Y-62364700D01*
X246164057Y-62364702D01*
X245966047Y-62424766D01*
X245966045Y-62424767D01*
X245783553Y-62522312D01*
X245623590Y-62653590D01*
X245492312Y-62813553D01*
X245394767Y-62996045D01*
X245394766Y-62996047D01*
X245334702Y-63194057D01*
X245334700Y-63194063D01*
X245314417Y-63400000D01*
X244885583Y-63400000D01*
X244865300Y-63194066D01*
X244810794Y-63014381D01*
X244805233Y-62996047D01*
X244805232Y-62996045D01*
X244707687Y-62813553D01*
X244707685Y-62813550D01*
X244576410Y-62653590D01*
X244416450Y-62522315D01*
X244416449Y-62522314D01*
X244416446Y-62522312D01*
X244233954Y-62424767D01*
X244233952Y-62424766D01*
X244035942Y-62364702D01*
X244035936Y-62364700D01*
X243830000Y-62344417D01*
X243624063Y-62364700D01*
X243624057Y-62364702D01*
X243426047Y-62424766D01*
X243426045Y-62424767D01*
X243243553Y-62522312D01*
X243083590Y-62653590D01*
X242952312Y-62813553D01*
X242854767Y-62996045D01*
X242854766Y-62996047D01*
X242794702Y-63194057D01*
X242794700Y-63194063D01*
X242774417Y-63400000D01*
X241790000Y-63400000D01*
X241790000Y-63334174D01*
X241773340Y-63272000D01*
X242388877Y-63272000D01*
X242388877Y-63271999D01*
X242381827Y-63195908D01*
X242381827Y-63195906D01*
X242325731Y-62998753D01*
X242234370Y-62815276D01*
X242234365Y-62815268D01*
X242110848Y-62651705D01*
X242110841Y-62651698D01*
X241959370Y-62513613D01*
X241959371Y-62513613D01*
X241785097Y-62405707D01*
X241593971Y-62331665D01*
X241593961Y-62331662D01*
X241418000Y-62298768D01*
X241418000Y-62916659D01*
X241355826Y-62900000D01*
X241224174Y-62900000D01*
X241162000Y-62916659D01*
X241162000Y-62298768D01*
X240986038Y-62331662D01*
X240986028Y-62331665D01*
X240794902Y-62405707D01*
X240620629Y-62513613D01*
X240469158Y-62651698D01*
X240469151Y-62651705D01*
X240345634Y-62815268D01*
X240345629Y-62815276D01*
X240254268Y-62998753D01*
X240198172Y-63195906D01*
X240198172Y-63195908D01*
X240191122Y-63271999D01*
X239792976Y-63271999D01*
X239785300Y-63194066D01*
X239730794Y-63014381D01*
X239725233Y-62996047D01*
X239725232Y-62996045D01*
X239627687Y-62813553D01*
X239627685Y-62813550D01*
X239496410Y-62653590D01*
X239336450Y-62522315D01*
X239336449Y-62522314D01*
X239336446Y-62522312D01*
X239153954Y-62424767D01*
X239153952Y-62424766D01*
X238955942Y-62364702D01*
X238955936Y-62364700D01*
X238750000Y-62344417D01*
X238544063Y-62364700D01*
X238544057Y-62364702D01*
X238346047Y-62424766D01*
X238346045Y-62424767D01*
X238163553Y-62522312D01*
X238003590Y-62653590D01*
X237872312Y-62813553D01*
X237774767Y-62996045D01*
X237774766Y-62996047D01*
X237714702Y-63194057D01*
X237714700Y-63194063D01*
X237694417Y-63400000D01*
X236710000Y-63400000D01*
X236710000Y-63334174D01*
X236693340Y-63272000D01*
X237308877Y-63272000D01*
X237308877Y-63271999D01*
X237301827Y-63195908D01*
X237301827Y-63195906D01*
X237245731Y-62998753D01*
X237154370Y-62815276D01*
X237154365Y-62815268D01*
X237030848Y-62651705D01*
X237030841Y-62651698D01*
X236879370Y-62513613D01*
X236879371Y-62513613D01*
X236705097Y-62405707D01*
X236513971Y-62331665D01*
X236513961Y-62331662D01*
X236338000Y-62298768D01*
X236338000Y-62916659D01*
X236275826Y-62900000D01*
X236144174Y-62900000D01*
X236082000Y-62916659D01*
X236082000Y-62298768D01*
X235906038Y-62331662D01*
X235906028Y-62331665D01*
X235714902Y-62405707D01*
X235540629Y-62513613D01*
X235389158Y-62651698D01*
X235389151Y-62651705D01*
X235265634Y-62815268D01*
X235265629Y-62815276D01*
X235174268Y-62998753D01*
X235118172Y-63195906D01*
X235118172Y-63195908D01*
X235111122Y-63271999D01*
X234712976Y-63271999D01*
X234705300Y-63194066D01*
X234650794Y-63014381D01*
X234645233Y-62996047D01*
X234645232Y-62996045D01*
X234547687Y-62813553D01*
X234547685Y-62813550D01*
X234416410Y-62653590D01*
X234256450Y-62522315D01*
X234256449Y-62522314D01*
X234256446Y-62522312D01*
X234073954Y-62424767D01*
X234073952Y-62424766D01*
X233875942Y-62364702D01*
X233875936Y-62364700D01*
X233670000Y-62344417D01*
X233464063Y-62364700D01*
X233464057Y-62364702D01*
X233266047Y-62424766D01*
X233266045Y-62424767D01*
X233083553Y-62522312D01*
X232923590Y-62653590D01*
X232792312Y-62813553D01*
X232694767Y-62996045D01*
X232694766Y-62996047D01*
X232634702Y-63194057D01*
X232634700Y-63194063D01*
X232614417Y-63400000D01*
X232185583Y-63400000D01*
X232165300Y-63194066D01*
X232110794Y-63014381D01*
X232105233Y-62996047D01*
X232105232Y-62996045D01*
X232007687Y-62813553D01*
X232007685Y-62813550D01*
X231876410Y-62653590D01*
X231716450Y-62522315D01*
X231716449Y-62522314D01*
X231716446Y-62522312D01*
X231533954Y-62424767D01*
X231533952Y-62424766D01*
X231335942Y-62364702D01*
X231335936Y-62364700D01*
X231130000Y-62344417D01*
X230924063Y-62364700D01*
X230924057Y-62364702D01*
X230726047Y-62424766D01*
X230726045Y-62424767D01*
X230543553Y-62522312D01*
X230383590Y-62653590D01*
X230252312Y-62813553D01*
X230154767Y-62996045D01*
X230154766Y-62996047D01*
X230094702Y-63194057D01*
X230094700Y-63194063D01*
X230074417Y-63400000D01*
X229645583Y-63400000D01*
X229625300Y-63194066D01*
X229570794Y-63014381D01*
X229565233Y-62996047D01*
X229565232Y-62996045D01*
X229467687Y-62813553D01*
X229467685Y-62813550D01*
X229336410Y-62653590D01*
X229176450Y-62522315D01*
X229176449Y-62522314D01*
X229176446Y-62522312D01*
X228993954Y-62424767D01*
X228993952Y-62424766D01*
X228795942Y-62364702D01*
X228795936Y-62364700D01*
X228590000Y-62344417D01*
X228384063Y-62364700D01*
X228384057Y-62364702D01*
X228186047Y-62424766D01*
X228186045Y-62424767D01*
X228003553Y-62522312D01*
X227843590Y-62653590D01*
X227712312Y-62813553D01*
X227614767Y-62996045D01*
X227614766Y-62996047D01*
X227554702Y-63194057D01*
X227554700Y-63194063D01*
X227534417Y-63400000D01*
X227105583Y-63400000D01*
X227085300Y-63194066D01*
X227030794Y-63014381D01*
X227025233Y-62996047D01*
X227025232Y-62996045D01*
X226927687Y-62813553D01*
X226927685Y-62813550D01*
X226796410Y-62653590D01*
X226636450Y-62522315D01*
X226636449Y-62522314D01*
X226636446Y-62522312D01*
X226453954Y-62424767D01*
X226453952Y-62424766D01*
X226255942Y-62364702D01*
X226255936Y-62364700D01*
X226050000Y-62344417D01*
X225844063Y-62364700D01*
X225844057Y-62364702D01*
X225646047Y-62424766D01*
X225646045Y-62424767D01*
X225463553Y-62522312D01*
X225303590Y-62653590D01*
X225172312Y-62813553D01*
X225074767Y-62996045D01*
X225074766Y-62996047D01*
X225014702Y-63194057D01*
X225014700Y-63194063D01*
X224994417Y-63400000D01*
X224010000Y-63400000D01*
X224010000Y-63334174D01*
X223993340Y-63272000D01*
X224608877Y-63272000D01*
X224608877Y-63271999D01*
X224601827Y-63195908D01*
X224601827Y-63195906D01*
X224545731Y-62998753D01*
X224454370Y-62815276D01*
X224454365Y-62815268D01*
X224330848Y-62651705D01*
X224330841Y-62651698D01*
X224179370Y-62513613D01*
X224179371Y-62513613D01*
X224005097Y-62405707D01*
X223813971Y-62331665D01*
X223813961Y-62331662D01*
X223638000Y-62298768D01*
X223638000Y-62916659D01*
X223575826Y-62900000D01*
X223444174Y-62900000D01*
X223382000Y-62916659D01*
X223382000Y-62298768D01*
X223206038Y-62331662D01*
X223206028Y-62331665D01*
X223014902Y-62405707D01*
X222840629Y-62513613D01*
X222689158Y-62651698D01*
X222689151Y-62651705D01*
X222565634Y-62815268D01*
X222565629Y-62815276D01*
X222474268Y-62998753D01*
X222418172Y-63195906D01*
X222418172Y-63195908D01*
X222411122Y-63271999D01*
X222012976Y-63271999D01*
X222005300Y-63194066D01*
X221950794Y-63014381D01*
X221945233Y-62996047D01*
X221945232Y-62996045D01*
X221847687Y-62813553D01*
X221847685Y-62813550D01*
X221716410Y-62653590D01*
X221556450Y-62522315D01*
X221556449Y-62522314D01*
X221556446Y-62522312D01*
X221373954Y-62424767D01*
X221373952Y-62424766D01*
X221175942Y-62364702D01*
X221175936Y-62364700D01*
X220970000Y-62344417D01*
X220764063Y-62364700D01*
X220764057Y-62364702D01*
X220566047Y-62424766D01*
X220566045Y-62424767D01*
X220383553Y-62522312D01*
X220223590Y-62653590D01*
X220092312Y-62813553D01*
X219994767Y-62996045D01*
X219994766Y-62996047D01*
X219934702Y-63194057D01*
X219934700Y-63194063D01*
X219914417Y-63400000D01*
X219485583Y-63400000D01*
X219465300Y-63194066D01*
X219410794Y-63014381D01*
X219405233Y-62996047D01*
X219405232Y-62996045D01*
X219307687Y-62813553D01*
X219307685Y-62813550D01*
X219176410Y-62653590D01*
X219016450Y-62522315D01*
X219016449Y-62522314D01*
X219016446Y-62522312D01*
X218833954Y-62424767D01*
X218833952Y-62424766D01*
X218635942Y-62364702D01*
X218635936Y-62364700D01*
X218430000Y-62344417D01*
X218224063Y-62364700D01*
X218224057Y-62364702D01*
X218026047Y-62424766D01*
X218026045Y-62424767D01*
X217843553Y-62522312D01*
X217683590Y-62653590D01*
X217552312Y-62813553D01*
X217454767Y-62996045D01*
X217454766Y-62996047D01*
X217394702Y-63194057D01*
X217394700Y-63194063D01*
X217374417Y-63400000D01*
X216390000Y-63400000D01*
X216390000Y-63334174D01*
X216373340Y-63272000D01*
X216988877Y-63272000D01*
X216988877Y-63271999D01*
X216981827Y-63195908D01*
X216981827Y-63195906D01*
X216925731Y-62998753D01*
X216834370Y-62815276D01*
X216834365Y-62815268D01*
X216710848Y-62651705D01*
X216710841Y-62651698D01*
X216559370Y-62513613D01*
X216559371Y-62513613D01*
X216385097Y-62405707D01*
X216193971Y-62331665D01*
X216193961Y-62331662D01*
X216018000Y-62298768D01*
X216018000Y-62916659D01*
X215955826Y-62900000D01*
X215824174Y-62900000D01*
X215762000Y-62916659D01*
X215762000Y-62298768D01*
X215586038Y-62331662D01*
X215586028Y-62331665D01*
X215394902Y-62405707D01*
X215220629Y-62513613D01*
X215069158Y-62651698D01*
X215069151Y-62651705D01*
X214945634Y-62815268D01*
X214945629Y-62815276D01*
X214854268Y-62998753D01*
X214798172Y-63195906D01*
X214798172Y-63195908D01*
X214791122Y-63271999D01*
X214392976Y-63271999D01*
X214385300Y-63194066D01*
X214330794Y-63014381D01*
X214325233Y-62996047D01*
X214325232Y-62996045D01*
X214227687Y-62813553D01*
X214227685Y-62813550D01*
X214096410Y-62653590D01*
X213936450Y-62522315D01*
X213936449Y-62522314D01*
X213936446Y-62522312D01*
X213753954Y-62424767D01*
X213753952Y-62424766D01*
X213555942Y-62364702D01*
X213555936Y-62364700D01*
X213350000Y-62344417D01*
X213144063Y-62364700D01*
X213144057Y-62364702D01*
X212946047Y-62424766D01*
X212946045Y-62424767D01*
X212763553Y-62522312D01*
X212603590Y-62653590D01*
X212472312Y-62813553D01*
X212374767Y-62996045D01*
X212374766Y-62996047D01*
X212314702Y-63194057D01*
X212314700Y-63194063D01*
X212294417Y-63400000D01*
X211865583Y-63400000D01*
X211845300Y-63194066D01*
X211790794Y-63014381D01*
X211785233Y-62996047D01*
X211785232Y-62996045D01*
X211687687Y-62813553D01*
X211687685Y-62813550D01*
X211556410Y-62653590D01*
X211396450Y-62522315D01*
X211396449Y-62522314D01*
X211396446Y-62522312D01*
X211213954Y-62424767D01*
X211213952Y-62424766D01*
X211015942Y-62364702D01*
X211015936Y-62364700D01*
X210810000Y-62344417D01*
X210604063Y-62364700D01*
X210604057Y-62364702D01*
X210406047Y-62424766D01*
X210406045Y-62424767D01*
X210223553Y-62522312D01*
X210063590Y-62653590D01*
X209932312Y-62813553D01*
X209834767Y-62996045D01*
X209834766Y-62996047D01*
X209774702Y-63194057D01*
X209774700Y-63194063D01*
X209754417Y-63400000D01*
X209325583Y-63400000D01*
X209305300Y-63194066D01*
X209250794Y-63014381D01*
X209245233Y-62996047D01*
X209245232Y-62996045D01*
X209147687Y-62813553D01*
X209147685Y-62813550D01*
X209016410Y-62653590D01*
X208856450Y-62522315D01*
X208856449Y-62522314D01*
X208856446Y-62522312D01*
X208673954Y-62424767D01*
X208673952Y-62424766D01*
X208475942Y-62364702D01*
X208475936Y-62364700D01*
X208270000Y-62344417D01*
X208064063Y-62364700D01*
X208064057Y-62364702D01*
X207866047Y-62424766D01*
X207866045Y-62424767D01*
X207683553Y-62522312D01*
X207523590Y-62653590D01*
X207392312Y-62813553D01*
X207294767Y-62996045D01*
X207294766Y-62996047D01*
X207234702Y-63194057D01*
X207234700Y-63194063D01*
X207214417Y-63400000D01*
X206230000Y-63400000D01*
X206230000Y-63334174D01*
X206213340Y-63272000D01*
X206828877Y-63272000D01*
X206828877Y-63271999D01*
X206821827Y-63195908D01*
X206821827Y-63195906D01*
X206765731Y-62998753D01*
X206674370Y-62815276D01*
X206674365Y-62815268D01*
X206550848Y-62651705D01*
X206550841Y-62651698D01*
X206399370Y-62513613D01*
X206399371Y-62513613D01*
X206225097Y-62405707D01*
X206033971Y-62331665D01*
X206033961Y-62331662D01*
X205858000Y-62298768D01*
X205858000Y-62916659D01*
X205795826Y-62900000D01*
X205664174Y-62900000D01*
X205602000Y-62916659D01*
X205602000Y-62298768D01*
X205426038Y-62331662D01*
X205426028Y-62331665D01*
X205234902Y-62405707D01*
X205060629Y-62513613D01*
X204909158Y-62651698D01*
X204909151Y-62651705D01*
X204785634Y-62815268D01*
X204785629Y-62815276D01*
X204694268Y-62998753D01*
X204638172Y-63195906D01*
X204638172Y-63195908D01*
X204631122Y-63271999D01*
X204232976Y-63271999D01*
X204225300Y-63194066D01*
X204170794Y-63014381D01*
X204165233Y-62996047D01*
X204165232Y-62996045D01*
X204067687Y-62813553D01*
X204067685Y-62813550D01*
X203936410Y-62653590D01*
X203776450Y-62522315D01*
X203776449Y-62522314D01*
X203776446Y-62522312D01*
X203593954Y-62424767D01*
X203593952Y-62424766D01*
X203395942Y-62364702D01*
X203395936Y-62364700D01*
X203190000Y-62344417D01*
X202984063Y-62364700D01*
X202984057Y-62364702D01*
X202786047Y-62424766D01*
X202786045Y-62424767D01*
X202603553Y-62522312D01*
X202443590Y-62653590D01*
X202312312Y-62813553D01*
X202214767Y-62996045D01*
X202214766Y-62996047D01*
X202154702Y-63194057D01*
X202154700Y-63194063D01*
X202134417Y-63400000D01*
X201705583Y-63400000D01*
X201685300Y-63194066D01*
X201630794Y-63014381D01*
X201625233Y-62996047D01*
X201625232Y-62996045D01*
X201527687Y-62813553D01*
X201527685Y-62813550D01*
X201396410Y-62653590D01*
X201236450Y-62522315D01*
X201236449Y-62522314D01*
X201236446Y-62522312D01*
X201053954Y-62424767D01*
X201053952Y-62424766D01*
X200855942Y-62364702D01*
X200855936Y-62364700D01*
X200650000Y-62344417D01*
X200444063Y-62364700D01*
X200444057Y-62364702D01*
X200246047Y-62424766D01*
X200246045Y-62424767D01*
X200063553Y-62522312D01*
X199903590Y-62653590D01*
X199772312Y-62813553D01*
X199674767Y-62996045D01*
X199674766Y-62996047D01*
X199614702Y-63194057D01*
X199614700Y-63194063D01*
X199594417Y-63400000D01*
X192398734Y-63400000D01*
X192414188Y-63332291D01*
X192416143Y-63325506D01*
X192525014Y-63014370D01*
X192527709Y-63007864D01*
X192670730Y-62710877D01*
X192674135Y-62704716D01*
X192849515Y-62425601D01*
X192853592Y-62419856D01*
X193059109Y-62162145D01*
X193063800Y-62156895D01*
X193296895Y-61923800D01*
X193302145Y-61919109D01*
X193559856Y-61713592D01*
X193565601Y-61709515D01*
X193844716Y-61534135D01*
X193850877Y-61530730D01*
X194147864Y-61387709D01*
X194154370Y-61385014D01*
X194465510Y-61276141D01*
X194472291Y-61274188D01*
X194793639Y-61200843D01*
X194800585Y-61199662D01*
X195128593Y-61162705D01*
X195134737Y-61162316D01*
X195299572Y-61160005D01*
X195300455Y-61160000D01*
X254299545Y-61160000D01*
X254300427Y-61160005D01*
G37*
%TD.AperFunction*%
%TD*%
M02*
