%TF.GenerationSoftware,KiCad,Pcbnew,8.0.8*%
%TF.CreationDate,2025-02-25T11:28:35+01:00*%
%TF.ProjectId,ADC_16bit_board_v0r0,4144435f-3136-4626-9974-5f626f617264,rev?*%
%TF.SameCoordinates,Original*%
%TF.FileFunction,Legend,Bot*%
%TF.FilePolarity,Positive*%
%FSLAX46Y46*%
G04 Gerber Fmt 4.6, Leading zero omitted, Abs format (unit mm)*
G04 Created by KiCad (PCBNEW 8.0.8) date 2025-02-25 11:28:35*
%MOMM*%
%LPD*%
G01*
G04 APERTURE LIST*
%ADD10C,0.150000*%
%ADD11C,0.120000*%
G04 APERTURE END LIST*
D10*
X197334819Y-64336666D02*
X198049104Y-64336666D01*
X198049104Y-64336666D02*
X198191961Y-64289047D01*
X198191961Y-64289047D02*
X198287200Y-64193809D01*
X198287200Y-64193809D02*
X198334819Y-64050952D01*
X198334819Y-64050952D02*
X198334819Y-63955714D01*
X197334819Y-64717619D02*
X197334819Y-65336666D01*
X197334819Y-65336666D02*
X197715771Y-65003333D01*
X197715771Y-65003333D02*
X197715771Y-65146190D01*
X197715771Y-65146190D02*
X197763390Y-65241428D01*
X197763390Y-65241428D02*
X197811009Y-65289047D01*
X197811009Y-65289047D02*
X197906247Y-65336666D01*
X197906247Y-65336666D02*
X198144342Y-65336666D01*
X198144342Y-65336666D02*
X198239580Y-65289047D01*
X198239580Y-65289047D02*
X198287200Y-65241428D01*
X198287200Y-65241428D02*
X198334819Y-65146190D01*
X198334819Y-65146190D02*
X198334819Y-64860476D01*
X198334819Y-64860476D02*
X198287200Y-64765238D01*
X198287200Y-64765238D02*
X198239580Y-64717619D01*
D11*
%TO.C,J3*%
X199320000Y-64670000D02*
X199320000Y-62070000D01*
X199320000Y-67270000D02*
X199320000Y-65940000D01*
X200650000Y-67270000D02*
X199320000Y-67270000D01*
X201920000Y-64670000D02*
X199320000Y-64670000D01*
X201920000Y-67270000D02*
X201920000Y-64670000D01*
X250240000Y-62070000D02*
X199320000Y-62070000D01*
X250240000Y-67270000D02*
X201920000Y-67270000D01*
X250240000Y-67270000D02*
X250240000Y-62070000D01*
%TD*%
M02*
