M48
; DRILL file {KiCad 8.0.8} date 2025-02-25T11:28:38+0100
; FORMAT={-:-/ absolute / metric / decimal}
; #@! TF.CreationDate,2025-02-25T11:28:38+01:00
; #@! TF.GenerationSoftware,Kicad,Pcbnew,8.0.8
; #@! TF.FileFunction,Plated,1,4,PTH
FMAT,2
METRIC
; #@! TA.AperFunction,Plated,PTH,ViaDrill
T1C0.400
; #@! TA.AperFunction,Plated,PTH,ComponentDrill
T2C1.000
; #@! TA.AperFunction,Plated,PTH,ComponentDrill
T3C1.200
%
G90
G05
T1
X194.6Y-115.4
X198.6Y-112.8
X203.6Y-101.8
X204.089Y-100.05
X204.6Y-97.0
X205.8Y-80.8
X206.8Y-87.2
X207.15Y-99.0
X208.95Y-99.55
X211.8Y-100.8
X212.95Y-101.8
X222.6Y-107.8
X224.367Y-77.603
X226.75Y-73.25
X229.95Y-75.2
X230.0Y-84.0
X232.5Y-75.0
X232.5Y-76.5
X232.5Y-78.0
X234.0Y-76.5
X235.0Y-94.6
X235.2Y-108.6
X235.75Y-81.75
T2
X194.96Y-100.88
X194.96Y-103.42
X194.96Y-105.96
X194.96Y-108.5
X197.5Y-100.88
X197.5Y-103.42
X197.5Y-105.96
X197.5Y-108.5
X200.65Y-63.4
X200.65Y-65.94
X203.19Y-63.4
X203.19Y-65.94
X205.73Y-63.4
X205.73Y-65.94
X208.27Y-63.4
X208.27Y-65.94
X210.81Y-63.4
X210.81Y-65.94
X213.35Y-63.4
X213.35Y-65.94
X215.25Y-80.325
X215.25Y-82.865
X215.25Y-87.945
X215.25Y-90.485
X215.25Y-93.025
X215.89Y-63.4
X215.89Y-65.94
X218.0Y-100.27
X218.43Y-63.4
X218.43Y-65.94
X220.5Y-102.77
X220.97Y-63.4
X220.97Y-65.94
X223.0Y-100.27
X223.51Y-63.4
X223.51Y-65.94
X226.0Y-100.25
X226.05Y-63.4
X226.05Y-65.94
X228.5Y-102.75
X228.59Y-63.4
X228.59Y-65.94
X231.0Y-100.25
X231.13Y-63.4
X231.13Y-65.94
X233.67Y-63.4
X233.67Y-65.94
X236.21Y-63.4
X236.21Y-65.94
X238.75Y-63.4
X238.75Y-65.94
X241.29Y-63.4
X241.29Y-65.94
X243.83Y-63.4
X243.83Y-65.94
X246.37Y-63.4
X246.37Y-65.94
X248.91Y-63.4
X248.91Y-65.94
T3
X204.5Y-110.109
X208.0Y-110.109
X226.85Y-110.15
X230.35Y-110.15
M30
