%TF.GenerationSoftware,KiCad,Pcbnew,8.0.8*%
%TF.CreationDate,2025-02-25T11:28:35+01:00*%
%TF.ProjectId,ADC_16bit_board_v0r0,4144435f-3136-4626-9974-5f626f617264,rev?*%
%TF.SameCoordinates,Original*%
%TF.FileFunction,Soldermask,Top*%
%TF.FilePolarity,Negative*%
%FSLAX46Y46*%
G04 Gerber Fmt 4.6, Leading zero omitted, Abs format (unit mm)*
G04 Created by KiCad (PCBNEW 8.0.8) date 2025-02-25 11:28:35*
%MOMM*%
%LPD*%
G01*
G04 APERTURE LIST*
G04 Aperture macros list*
%AMRoundRect*
0 Rectangle with rounded corners*
0 $1 Rounding radius*
0 $2 $3 $4 $5 $6 $7 $8 $9 X,Y pos of 4 corners*
0 Add a 4 corners polygon primitive as box body*
4,1,4,$2,$3,$4,$5,$6,$7,$8,$9,$2,$3,0*
0 Add four circle primitives for the rounded corners*
1,1,$1+$1,$2,$3*
1,1,$1+$1,$4,$5*
1,1,$1+$1,$6,$7*
1,1,$1+$1,$8,$9*
0 Add four rect primitives between the rounded corners*
20,1,$1+$1,$2,$3,$4,$5,0*
20,1,$1+$1,$4,$5,$6,$7,0*
20,1,$1+$1,$6,$7,$8,$9,0*
20,1,$1+$1,$8,$9,$2,$3,0*%
%AMFreePoly0*
4,1,19,0.550000,-0.750000,0.000000,-0.750000,0.000000,-0.744911,-0.071157,-0.744911,-0.207708,-0.704816,-0.327430,-0.627875,-0.420627,-0.520320,-0.479746,-0.390866,-0.500000,-0.250000,-0.500000,0.250000,-0.479746,0.390866,-0.420627,0.520320,-0.327430,0.627875,-0.207708,0.704816,-0.071157,0.744911,0.000000,0.744911,0.000000,0.750000,0.550000,0.750000,0.550000,-0.750000,0.550000,-0.750000,
$1*%
%AMFreePoly1*
4,1,19,0.000000,0.744911,0.071157,0.744911,0.207708,0.704816,0.327430,0.627875,0.420627,0.520320,0.479746,0.390866,0.500000,0.250000,0.500000,-0.250000,0.479746,-0.390866,0.420627,-0.520320,0.327430,-0.627875,0.207708,-0.704816,0.071157,-0.744911,0.000000,-0.744911,0.000000,-0.750000,-0.550000,-0.750000,-0.550000,0.750000,0.000000,0.750000,0.000000,0.744911,0.000000,0.744911,
$1*%
G04 Aperture macros list end*
%ADD10RoundRect,0.225000X-0.250000X0.225000X-0.250000X-0.225000X0.250000X-0.225000X0.250000X0.225000X0*%
%ADD11RoundRect,0.200000X0.200000X0.275000X-0.200000X0.275000X-0.200000X-0.275000X0.200000X-0.275000X0*%
%ADD12R,2.000000X2.000000*%
%ADD13RoundRect,0.150000X-0.150000X0.512500X-0.150000X-0.512500X0.150000X-0.512500X0.150000X0.512500X0*%
%ADD14RoundRect,0.225000X0.250000X-0.225000X0.250000X0.225000X-0.250000X0.225000X-0.250000X-0.225000X0*%
%ADD15R,1.700000X1.700000*%
%ADD16O,1.700000X1.700000*%
%ADD17RoundRect,0.062500X-0.062500X0.350000X-0.062500X-0.350000X0.062500X-0.350000X0.062500X0.350000X0*%
%ADD18RoundRect,0.062500X-0.350000X0.062500X-0.350000X-0.062500X0.350000X-0.062500X0.350000X0.062500X0*%
%ADD19R,1.230000X1.230000*%
%ADD20RoundRect,0.225000X-0.225000X-0.250000X0.225000X-0.250000X0.225000X0.250000X-0.225000X0.250000X0*%
%ADD21RoundRect,0.100000X-0.637500X-0.100000X0.637500X-0.100000X0.637500X0.100000X-0.637500X0.100000X0*%
%ADD22R,2.400000X2.400000*%
%ADD23C,2.400000*%
%ADD24RoundRect,0.200000X-0.275000X0.200000X-0.275000X-0.200000X0.275000X-0.200000X0.275000X0.200000X0*%
%ADD25RoundRect,0.225000X0.225000X0.250000X-0.225000X0.250000X-0.225000X-0.250000X0.225000X-0.250000X0*%
%ADD26FreePoly0,90.000000*%
%ADD27R,1.500000X1.000000*%
%ADD28FreePoly1,90.000000*%
%ADD29R,1.500000X1.500000*%
%ADD30C,1.500000*%
%ADD31RoundRect,0.102000X0.754000X0.754000X-0.754000X0.754000X-0.754000X-0.754000X0.754000X-0.754000X0*%
%ADD32C,1.712000*%
%ADD33RoundRect,0.150000X0.150000X-0.825000X0.150000X0.825000X-0.150000X0.825000X-0.150000X-0.825000X0*%
G04 APERTURE END LIST*
D10*
%TO.C,C22*%
X233750000Y-96250000D03*
X233750000Y-97800000D03*
%TD*%
D11*
%TO.C,R1*%
X236075000Y-84250000D03*
X234425000Y-84250000D03*
%TD*%
D12*
%TO.C,TP5*%
X222200000Y-70000000D03*
%TD*%
D10*
%TO.C,C4*%
X221750000Y-83725000D03*
X221750000Y-85275000D03*
%TD*%
D13*
%TO.C,U4*%
X205950000Y-85000000D03*
X205000000Y-85000000D03*
X204050000Y-85000000D03*
X204050000Y-87275000D03*
X205950000Y-87275000D03*
%TD*%
D14*
%TO.C,C15*%
X218500000Y-93000000D03*
X218500000Y-91450000D03*
%TD*%
D15*
%TO.C,J4*%
X194960000Y-100880000D03*
D16*
X197500000Y-100880000D03*
X194960000Y-103420000D03*
X197500000Y-103420000D03*
X194960000Y-105960000D03*
X197500000Y-105960000D03*
X194960000Y-108500000D03*
X197500000Y-108500000D03*
%TD*%
D17*
%TO.C,U5*%
X207000000Y-100125000D03*
X206500000Y-100125000D03*
X206000000Y-100125000D03*
X205500000Y-100125000D03*
D18*
X204812500Y-100812500D03*
X204812500Y-101312500D03*
X204812500Y-101812500D03*
X204812500Y-102312500D03*
D17*
X205500000Y-103000000D03*
X206000000Y-103000000D03*
X206500000Y-103000000D03*
X207000000Y-103000000D03*
D18*
X207687500Y-102312500D03*
X207687500Y-101812500D03*
X207687500Y-101312500D03*
X207687500Y-100812500D03*
D19*
X206250000Y-101562500D03*
%TD*%
D20*
%TO.C,C14*%
X229450000Y-76750000D03*
X231000000Y-76750000D03*
%TD*%
D12*
%TO.C,TP4*%
X225600000Y-70000000D03*
%TD*%
D21*
%TO.C,U1*%
X226250000Y-80450000D03*
X226250000Y-81100000D03*
X226250000Y-81750000D03*
X226250000Y-82400000D03*
X226250000Y-83050000D03*
X226250000Y-83700000D03*
X226250000Y-84350000D03*
X226250000Y-85000000D03*
X231975000Y-85000000D03*
X231975000Y-84350000D03*
X231975000Y-83700000D03*
X231975000Y-83050000D03*
X231975000Y-82400000D03*
X231975000Y-81750000D03*
X231975000Y-81100000D03*
X231975000Y-80450000D03*
%TD*%
D22*
%TO.C,J1*%
X226850000Y-110150000D03*
D23*
X230350000Y-110150000D03*
%TD*%
D24*
%TO.C,R2*%
X234000000Y-108600000D03*
X234000000Y-110250000D03*
%TD*%
D25*
%TO.C,C10*%
X234775000Y-105200000D03*
X233225000Y-105200000D03*
%TD*%
D24*
%TO.C,R5*%
X194500000Y-112850000D03*
X194500000Y-114500000D03*
%TD*%
D10*
%TO.C,C20*%
X212000000Y-110450000D03*
X212000000Y-112000000D03*
%TD*%
D14*
%TO.C,C11*%
X226500000Y-90050000D03*
X226500000Y-88500000D03*
%TD*%
D12*
%TO.C,TP3*%
X232400000Y-70000000D03*
%TD*%
%TO.C,TP6*%
X238600000Y-87000000D03*
%TD*%
D11*
%TO.C,R3*%
X233650000Y-94500000D03*
X232000000Y-94500000D03*
%TD*%
D20*
%TO.C,C7*%
X229450000Y-78500000D03*
X231000000Y-78500000D03*
%TD*%
D14*
%TO.C,C2*%
X223500000Y-82050000D03*
X223500000Y-80500000D03*
%TD*%
D25*
%TO.C,C6*%
X225075000Y-76800000D03*
X223525000Y-76800000D03*
%TD*%
D14*
%TO.C,C1*%
X232000000Y-90050000D03*
X232000000Y-88500000D03*
%TD*%
D10*
%TO.C,C12*%
X232000000Y-96250000D03*
X232000000Y-97800000D03*
%TD*%
D24*
%TO.C,R6*%
X197500000Y-112850000D03*
X197500000Y-114500000D03*
%TD*%
D25*
%TO.C,C18*%
X204500000Y-98000000D03*
X202950000Y-98000000D03*
%TD*%
D12*
%TO.C,TP7*%
X238600000Y-90200000D03*
%TD*%
%TO.C,TP1*%
X229000000Y-70000000D03*
%TD*%
D24*
%TO.C,R4*%
X230000000Y-88350000D03*
X230000000Y-90000000D03*
%TD*%
D26*
%TO.C,JP1*%
X222500000Y-111600000D03*
D27*
X222500000Y-110300000D03*
D28*
X222500000Y-109000000D03*
%TD*%
D29*
%TO.C,U2*%
X215250000Y-80325000D03*
D30*
X215250000Y-82865000D03*
X215250000Y-87945000D03*
X215250000Y-90485000D03*
X215250000Y-93025000D03*
%TD*%
D31*
%TO.C,RV1*%
X231000000Y-100250000D03*
D32*
X228500000Y-102750000D03*
X226000000Y-100250000D03*
%TD*%
D25*
%TO.C,C8*%
X205725000Y-82775000D03*
X204175000Y-82775000D03*
%TD*%
D33*
%TO.C,U3*%
X226190000Y-97250000D03*
X227460000Y-97250000D03*
X228730000Y-97250000D03*
X230000000Y-97250000D03*
X230000000Y-92300000D03*
X228730000Y-92300000D03*
X227460000Y-92300000D03*
X226190000Y-92300000D03*
%TD*%
D25*
%TO.C,C5*%
X225075000Y-78700000D03*
X223525000Y-78700000D03*
%TD*%
D31*
%TO.C,RV2*%
X223000000Y-100270000D03*
D32*
X220500000Y-102770000D03*
X218000000Y-100270000D03*
%TD*%
D10*
%TO.C,C3*%
X223500000Y-83700000D03*
X223500000Y-85250000D03*
%TD*%
D14*
%TO.C,C13*%
X228250000Y-90050000D03*
X228250000Y-88500000D03*
%TD*%
D10*
%TO.C,C21*%
X200500000Y-110450000D03*
X200500000Y-112000000D03*
%TD*%
D20*
%TO.C,C19*%
X206450000Y-98000000D03*
X208000000Y-98000000D03*
%TD*%
D25*
%TO.C,C9*%
X216050000Y-76500000D03*
X214500000Y-76500000D03*
%TD*%
D12*
%TO.C,TP2*%
X218600000Y-70000000D03*
%TD*%
D22*
%TO.C,J2*%
X204500000Y-110109000D03*
D23*
X208000000Y-110109000D03*
%TD*%
D25*
%TO.C,C17*%
X205750000Y-89525000D03*
X204200000Y-89525000D03*
%TD*%
D14*
%TO.C,C16*%
X218500000Y-89550000D03*
X218500000Y-88000000D03*
%TD*%
D15*
%TO.C,J3*%
X200650000Y-65940000D03*
D16*
X200650000Y-63400000D03*
X203190000Y-65940000D03*
X203190000Y-63400000D03*
X205730000Y-65940000D03*
X205730000Y-63400000D03*
X208270000Y-65940000D03*
X208270000Y-63400000D03*
X210810000Y-65940000D03*
X210810000Y-63400000D03*
X213350000Y-65940000D03*
X213350000Y-63400000D03*
X215890000Y-65940000D03*
X215890000Y-63400000D03*
X218430000Y-65940000D03*
X218430000Y-63400000D03*
X220970000Y-65940000D03*
X220970000Y-63400000D03*
X223510000Y-65940000D03*
X223510000Y-63400000D03*
X226050000Y-65940000D03*
X226050000Y-63400000D03*
X228590000Y-65940000D03*
X228590000Y-63400000D03*
X231130000Y-65940000D03*
X231130000Y-63400000D03*
X233670000Y-65940000D03*
X233670000Y-63400000D03*
X236210000Y-65940000D03*
X236210000Y-63400000D03*
X238750000Y-65940000D03*
X238750000Y-63400000D03*
X241290000Y-65940000D03*
X241290000Y-63400000D03*
X243830000Y-65940000D03*
X243830000Y-63400000D03*
X246370000Y-65940000D03*
X246370000Y-63400000D03*
X248910000Y-65940000D03*
X248910000Y-63400000D03*
%TD*%
M02*
