%TF.GenerationSoftware,KiCad,Pcbnew,8.0.8*%
%TF.CreationDate,2025-02-25T11:28:35+01:00*%
%TF.ProjectId,ADC_16bit_board_v0r0,4144435f-3136-4626-9974-5f626f617264,rev?*%
%TF.SameCoordinates,Original*%
%TF.FileFunction,Profile,NP*%
%FSLAX46Y46*%
G04 Gerber Fmt 4.6, Leading zero omitted, Abs format (unit mm)*
G04 Created by KiCad (PCBNEW 8.0.8) date 2025-02-25 11:28:35*
%MOMM*%
%LPD*%
G01*
G04 APERTURE LIST*
%TA.AperFunction,Profile*%
%ADD10C,0.100000*%
%TD*%
G04 APERTURE END LIST*
D10*
X196800000Y-80660000D02*
G75*
G02*
X197300000Y-81160000I0J-500000D01*
G01*
X197300000Y-81160000D02*
X197300000Y-97160000D01*
X197300000Y-97160000D02*
G75*
G02*
X196800000Y-97660000I-500000J0D01*
G01*
X195300000Y-117160000D02*
G75*
G02*
X192300000Y-114160000I0J3000000D01*
G01*
X192800000Y-80660000D02*
G75*
G02*
X192300000Y-80160000I0J500000D01*
G01*
X192800000Y-80660000D02*
X196800000Y-80660000D01*
X238300000Y-113160000D02*
G75*
G02*
X236300000Y-113160000I-1000000J0D01*
G01*
X236300000Y-113160000D02*
X236300000Y-98160000D01*
X236300000Y-98160000D02*
G75*
G02*
X238300000Y-98160000I1000000J0D01*
G01*
X254300000Y-61160000D02*
G75*
G02*
X257300000Y-64160000I0J-3000000D01*
G01*
X192300000Y-64160000D02*
G75*
G02*
X195300000Y-61160000I3000000J0D01*
G01*
X257300000Y-114160000D02*
X257300000Y-64160000D01*
X196800000Y-97660000D02*
X192800000Y-97660000D01*
X192300000Y-98160000D02*
X192300000Y-114160000D01*
X192300000Y-98160000D02*
G75*
G02*
X192799127Y-97660001I500000J0D01*
G01*
X238300000Y-98160000D02*
X238300000Y-113160000D01*
X192300000Y-64160000D02*
X192300000Y-80160000D01*
X257300000Y-114160000D02*
G75*
G02*
X254300000Y-117160000I-3000000J0D01*
G01*
X254300000Y-61160000D02*
X195300000Y-61160000D01*
X195300000Y-117160000D02*
X254300000Y-117160000D01*
M02*
